<?xml version="1.0" encoding="utf-8"?>
<!-- Generator: Adobe Illustrator 21.1.0, SVG Export Plug-In . SVG Version: 6.00 Build 0)  -->
<svg version="1.1" id="Layer_1" xmlns="http://www.w3.org/2000/svg" xmlns:xlink="http://www.w3.org/1999/xlink" x="0px" y="0px"
	 viewBox="0 0 966 119" style="enable-background:new 0 0 966 119;" xml:space="preserve">
<style type="text/css">
	.st0{fill:#FFFFFF;}
</style>
<g>
	<path d="M163.9,0.1c0,7,0,14.1,0,21.7c-1.7,0.1-3.5,0.2-5.2,0.2c-13,0-26,0.1-39,0c-3.2,0-4.4,0.9-4.3,4.2c0.2,7,0.1,13.9,0.1,21.6
		c12.3,0,24.2,0,36.3,0c0,7.8,0,14.9,0,22.7c-11.8,0-23.7,0-36.3,0c0,8.4-0.1,16.2,0.2,24c0,0.9,2.8,2.3,4.3,2.3
		c12.7,0.2,25.3,0.1,38,0.1c1.8,0,3.6,0,5.8,0c0,7.5,0,14.7,0,22c-0.8,0.2-1.4,0.4-2.1,0.4c-21.8,0-43.6,0-65.5,0.1
		c-2.8,0-3.8-0.9-3.8-3.8c0.1-37.5,0.1-75,0-112.5c0-2.3,0.3-3.8,3.2-3.8c22.3,0.1,44.6,0.1,67,0.2C163-0.4,163.3-0.1,163.9,0.1z"/>
	<path d="M866.9-0.2c0,7.4,0,14.5,0,22.1c-1.8,0.1-3.5,0.2-5.3,0.2c-13,0-26,0.1-39,0c-3.3,0-4.4,1-4.3,4.3c0.2,7,0.1,13.9,0.1,21.6
		c12.3,0,24.2,0,36.3,0c0,7.8,0,14.9,0,22.7c-11.9,0-23.7,0-36.3,0c0,8.4-0.1,16.2,0.2,24c0,0.8,2.8,2.2,4.4,2.2
		c12.7,0.2,25.3,0.1,38,0.1c1.8,0,3.6,0,5.8,0c0,7.5,0,14.7,0,22.2c-1.7,0.1-3.1,0.3-4.6,0.3c-20.5,0-41-0.1-61.5,0.1
		c-4.2,0-5.3-1.3-5.3-5.4c0.1-36.5,0.1-73,0-109.5c0-4.1,1.1-5.4,5.3-5.3c20.5,0.2,41,0.1,61.5,0.1C863.7-0.5,865.1-0.4,866.9-0.2z"
		/>
	<path d="M260.9,0c7.5,0,14.6,0,22.5,0c0,2,0,3.9,0,5.9c0,28.5,0.1,57-0.1,85.5c0,4.5,1.3,5.7,5.6,5.6c14.1-0.3,28.3-0.1,42.8-0.1
		c0,7.3,0,14.4,0,21.9c-23.4,0-47,0-70.9,0C260.9,79.4,260.9,40,260.9,0z"/>
	<path d="M500,96.8c0,7.7,0,14.6,0,22c-23.7,0-47.3,0-71.1,0c0-39.5,0-78.9,0-118.6c7.4,0,14.6,0,22.5,0c0,2,0,3.9,0,5.9
		c0,28.3,0.1,56.6-0.1,85c0,4.5,1,6.1,5.8,6C471.2,96.6,485.3,96.8,500,96.8z"/>
	<path d="M578,1.2v18.3c3.3,0.7,6.5,2.1,9.1,4.4c3.9,3.5,6.8,9.2,6.7,15.1c-0.1,6.3-3.8,11.8-4.2,18c-0.6,10.6-0.6,12,3.1,19.5
		c2.8,5.7,7.9,9.9,13.2,7c-2.9,3.6-13,7.5-17.2,5.6c-2.9-1.3-4.6-3.2-6.2-6.6c-1.7,1.5-2.9,3.7-4.3,5.6s-3,1.9-5.1,1.8
		c-2.1,0.1-3.3,0.1-4.7-1.8c-1.4-1.9-2.7-4-4.3-5.6c-1.5,3.3-3.7,5.3-6.6,6.6c-4.2,1.9-13.9-2-16.8-5.6c5.2,2.9,10.3-1.3,13.2-7
		c3.7-7.5,3.7-8.9,3.1-19.5c-0.4-6.3-4-11.8-4.2-18c-0.1-6,2.8-11.6,6.7-15.1c2.8-2.5,6.2-3.9,9.6-4.6V1.2
		c-30.7,2.1-55,27.6-55,58.8c0,32.6,26.4,59,59,59s59-26.4,59-59C632,29.1,608.2,3.8,578,1.2z"/>
	<path d="M65,52.1c-3.6-2.2-4.2-3.8-2.5-7.7c9-21.1-5.3-43.4-28.4-44.4c-10.6-0.4-21.3-0.1-32-0.1c-0.8,0-1.5,0.3-2.3,0.5
		c0,15.1,0,30.1,0,45.2H37v5H-0.2c0,2.7,0,5.3,0,8H37v5H-0.2c0,18.4,0,36.9,0,55.5c15.9,0,31.2,0.1,46.5,0c8.7-0.1,16-3.8,22.5-9.5
		C86.3,93.9,84.4,63.6,65,52.1z"/>
	<g>
		<path d="M221,118.7c2.7,0,5.3,0,8,0v-22c-2.7,0-5.3,0-8,0V118.7z"/>
		<path d="M216,96.8c-3.7,0-7.4,0.1-11.1,0.1c-4.4,0.1-5.7-1.1-5.6-5.6c0.2-28.5,0.1-57,0.1-85.5c0-1.9,0-3.8,0-5.9
			c-7.9,0-15,0-22.5,0c0,40,0,79.4,0,118.7c13.1,0,26.2,0,39.1,0V96.8z"/>
		<path d="M234,96.8v21.9c4.6,0,9.2,0,13.8,0c0-7.5,0-14.6,0-21.9C243.1,96.8,238.6,96.8,234,96.8z"/>
	</g>
	<g>
		<path d="M344.9,39h22.6c0.1-2.7,0.1-5.3,0-8h-22.6C344.9,33.7,344.9,36.3,344.9,39z"/>
		<path d="M372,48.2c-3.3,0.1-4.7-0.8-4.7-4.2h-22.5c0,25,0,50,0,75.1c7.5,0,14.7,0,22.6,0c0-16.1,0-32,0-48.5c12.6,0,24.5,0,36.4,0
			c0-7.7,0-14.6,0-22.5C392.9,48.1,382.4,48,372,48.2z"/>
		<path d="M344.9-0.3c0,8.8,0,17.5,0,26.3h22.4c0-3.3,1.6-4,4.9-3.9c12.8,0.2,25.7,0.1,38.5,0.1c1.7,0,3.5-0.2,5.1-0.2
			c0-7.7,0-14.8,0-22.1C392.1-0.3,368.6-0.3,344.9-0.3z"/>
	</g>
	<g>
		<path d="M664.8,53.8c2.7,6.8,5.3,13.6,8,20.4V11.9c-1.1-2.7-2.2-5.5-3.3-8.2c-0.6-1.5-2.3-3.6-3.6-3.7c-0.4,0-0.7,0-1.1,0V53.8z"
			/>
		<path d="M659.8-0.2c-5.2-0.1-10.4,0-16.2,0c5.4,13.8,10.8,27.5,16.2,41.2V-0.2z"/>
		<path d="M762.9-0.3c-3.2-0.1-4.7,1-5.8,3.9c-5.5,14.6-11.3,29.2-17,43.7c-1.2,3-2.5,6-3.7,9c-0.4,0-0.9,0.1-1.3,0.1
			c-7.1-18.1-14.2-36.1-21.7-55.3C706,20.3,698.8,38.5,691.1,58c-1.4-3.2-2.2-4.8-2.8-6.5c-3.5-9-7-18-10.5-27V87
			c4.4,11.1,8.7,22.3,13.2,33.6c7.5-20.2,14.5-39.3,21.6-58.4c0.4,0,0.9,0,1.3,0c7.2,19.1,14.5,38.3,22.1,58.5
			c16-40.7,31.6-80.5,47.5-120.8C776.1-0.2,769.5,0,762.9-0.3z"/>
	</g>
	<path d="M939.2,76.9c4.6-3.7,9.2-6.3,12.4-10.1c6-7.2,9.2-15,9.8-23.2h-41.9v-5h42c-0.1-2.6-0.6-5.3-1.2-8h-40.7v-5h39.2
		c-0.1-0.2-0.1-0.3-0.2-0.5c-5.6-14.7-17.8-23.2-33.2-24.5c-14.8-1.3-29.9-0.3-45.2-0.3c0,39.8,0,79.1,0,118.6c7.6,0,14.8,0,22.7,0
		c0-17.7,0-34.9,0-52.2c2.2,1.4,3.3,3,4.4,4.6c9.6,14.8,19.2,29.6,28.9,44.3c0.9,1.3,2.1,3.4,3.2,3.4c8.7,0.3,17.3,0.2,26.9,0.2
		C956.7,104.1,947.8,90.2,939.2,76.9z"/>
</g>
</svg>
