<?xml version="1.0" encoding="utf-8"?>
<!-- Generator: Adobe Illustrator 15.0.2, SVG Export Plug-In . SVG Version: 6.00 Build 0)  -->
<!DOCTYPE svg PUBLIC "-//W3C//DTD SVG 1.1//EN" "http://www.w3.org/Graphics/SVG/1.1/DTD/svg11.dtd">
<svg version="1.1" id="Layer_1" xmlns="http://www.w3.org/2000/svg" xmlns:xlink="http://www.w3.org/1999/xlink" x="0px" y="0px"
	 width="119.257px" height="119.516px" viewBox="0 0 119.257 119.516" enable-background="new 0 0 119.257 119.516"
	 xml:space="preserve">
<path fill="#FFFFFF" d="M64.628,0.909v18.322c3.26,0.704,6.512,2.116,9.094,4.422c3.914,3.492,6.781,9.154,6.664,15.136
	c-0.121,6.281-3.787,11.776-4.164,18.041c-0.637,10.581-0.637,12.025,3.07,19.48c2.846,5.72,7.928,9.881,13.164,6.991
	c-2.91,3.612-12.977,7.49-17.168,5.608c-2.916-1.312-4.639-3.246-6.18-6.588c-1.674,1.53-2.883,3.7-4.324,5.559
	c-1.443,1.858-3.023,1.88-5.102,1.809c-2.078,0.071-3.268,0.05-4.709-1.809c-1.443-1.858-2.652-4.028-4.326-5.559
	c-1.541,3.342-3.652,5.275-6.57,6.588c-4.191,1.882-13.867-1.996-16.775-5.608c5.236,2.89,10.316-1.271,13.162-6.991
	c3.707-7.455,3.707-8.899,3.072-19.48c-0.377-6.265-4.043-11.76-4.166-18.041c-0.117-5.981,2.75-11.644,6.664-15.136
	c2.799-2.497,6.182-3.949,9.594-4.582V0.833c-30.717,2.06-55,27.611-55,58.851c0,32.585,26.416,59,59,59c32.586,0,59-26.415,59-59
	C118.628,28.784,94.87,3.45,64.628,0.909"/>
</svg>
