<?xml version="1.0" encoding="utf-8"?>
<!-- Generator: Adobe Illustrator 15.0.2, SVG Export Plug-In . SVG Version: 6.00 Build 0)  -->
<!DOCTYPE svg PUBLIC "-//W3C//DTD SVG 1.1//EN" "http://www.w3.org/Graphics/SVG/1.1/DTD/svg11.dtd">
<svg version="1.1" id="Layer_1" xmlns="http://www.w3.org/2000/svg" xmlns:xlink="http://www.w3.org/1999/xlink" x="0px" y="0px"
	 width="574.667px" height="86.667px" viewBox="0 0 574.667 86.667" enable-background="new 0 0 574.667 86.667"
	 xml:space="preserve">
<g>
	<g>
		<g>
			<path fill="#4D4D4D" d="M295.273,13.865c0.004,0.029,0.01,0.059,0.014,0.088c0.017-0.074,0.03-0.149,0.045-0.223
				c0.033-0.025,0.064-0.05,0.098-0.075c0.242-0.065,0.486-0.13,0.73-0.196c0.063-0.001,0.127-0.002,0.19-0.003
				c-0.017,0.074-0.031,0.148-0.046,0.223c-0.032,0.025-0.064,0.05-0.098,0.075c-0.244,0.065-0.487,0.131-0.73,0.196
				c-0.035-0.004-0.07-0.008-0.105-0.012c0.437,0.256,1.766-0.363,1.146-0.728c-0.561-0.33-2.037,0.118-1.494,0.914
				c0.422,0.618,2.124-0.043,1.592-0.841C296.328,12.852,294.923,13.34,295.273,13.865z"/>
		</g>
	</g>
	<g>
		<g>
			<path fill="#4D4D4D" d="M297.473,15.949c0.004,0.031,0.009,0.062,0.014,0.094c0.017-0.07,0.033-0.141,0.05-0.211
				c0.031-0.022,0.064-0.044,0.096-0.067c0.244-0.065,0.488-0.13,0.731-0.196c0.062-0.008,0.125-0.016,0.187-0.024
				c-0.016,0.07-0.031,0.141-0.049,0.211c-0.033,0.023-0.063,0.046-0.098,0.069c-0.244,0.065-0.486,0.131-0.73,0.196
				c-0.034-0.001-0.068-0.003-0.104-0.004c0.412,0.243,1.749-0.354,1.152-0.705c-0.559-0.328-1.996,0.107-1.502,0.901
				c0.234,0.379,1.043,0.14,1.314-0.011c0.338-0.188,0.516-0.481,0.283-0.822C298.539,14.973,297.134,15.456,297.473,15.949z"/>
		</g>
	</g>
	<g>
		<g>
			<path fill="#4D4D4D" d="M299.637,18.026c0.019,0.029,0.038,0.059,0.057,0.088c-0.024-0.089-0.048-0.179-0.071-0.268
				c0,0.015,0.002,0.029,0.002,0.043c0.125-0.116,0.248-0.232,0.371-0.348c-0.027,0.015-0.056,0.031-0.082,0.046
				c0.189-0.033,0.381-0.065,0.571-0.099c0.073,0.033,0.147,0.066,0.222,0.099c-0.011,0.094-0.021,0.188-0.031,0.281
				c0.016-0.029,0.029-0.058,0.046-0.087c-0.124,0.116-0.248,0.232-0.371,0.348c0.026-0.016,0.056-0.032,0.084-0.047
				c-0.188,0.033-0.381,0.066-0.572,0.099c-0.04-0.018-0.079-0.036-0.118-0.054c0.323,0.188,0.742,0.14,1.041-0.085
				c0.228-0.172,0.395-0.573,0.073-0.76c-0.366-0.214-0.771-0.236-1.151-0.022c-0.404,0.227-0.584,0.625-0.32,1.029
				c0.488,0.753,2.152-0.018,1.578-0.906C300.601,16.824,299.222,17.383,299.637,18.026z"/>
		</g>
	</g>
	<g>
		<g>
			<path fill="#4D4D4D" d="M306.781,13.475c-0.477-0.708-1.853-0.218-1.726,0.639c0.067,0.458,0.767,0.483,1.093,0.396
				c0.439-0.118,0.762-0.454,0.691-0.917c-0.094-0.635-1.547-0.276-1.448,0.389c0.005,0.035,0.011,0.07,0.017,0.105
				c0.012-0.088,0.023-0.175,0.035-0.263c0.035-0.03,0.07-0.06,0.105-0.089c0.182-0.066,0.363-0.131,0.545-0.197
				c-0.032,0.003-0.062,0.006-0.096,0.009c0.164,0.033,0.328,0.066,0.49,0.1c0-0.008,0-0.017,0-0.025
				c-0.012,0.088-0.023,0.176-0.035,0.264c-0.035,0.029-0.07,0.058-0.104,0.087c-0.183,0.066-0.364,0.131-0.546,0.197
				c0.033-0.003,0.064-0.006,0.098-0.009c-0.164-0.033-0.326-0.066-0.49-0.1c0.014,0.013,0.027,0.026,0.041,0.04
				C305.798,14.615,307.186,14.077,306.781,13.475z"/>
		</g>
	</g>
	<g>
		<g>
			<path fill="#4D4D4D" d="M305.678,10.669c-0.457-0.627-1.845-0.184-1.738,0.623c0.058,0.439,0.789,0.403,1.074,0.326
				c0.415-0.111,0.772-0.396,0.719-0.85c-0.063-0.537-1.521-0.201-1.448,0.389c-0.009,0.028-0.017,0.056-0.025,0.084
				c0.092-0.109,0.182-0.219,0.271-0.328c-0.024,0.02-0.053,0.039-0.079,0.058c0.184-0.063,0.364-0.126,0.547-0.189
				c-0.031,0.002-0.062,0.005-0.095,0.008c0.161,0.022,0.321,0.045,0.481,0.068c-0.012,0.042-0.023,0.084-0.035,0.127
				c-0.227,0.097-0.452,0.194-0.678,0.292c0.031-0.002,0.063-0.005,0.098-0.008c-0.161-0.022-0.321-0.045-0.48-0.067
				c0.018,0.019,0.033,0.037,0.053,0.056C304.654,11.69,306.052,11.184,305.678,10.669z"/>
		</g>
	</g>
	<g>
		<g>
			<path fill="#4D4D4D" d="M304.578,7.876c-0.509-0.741-1.865-0.252-1.722,0.652c0.074,0.469,0.754,0.54,1.104,0.446
				c0.463-0.124,0.75-0.497,0.681-0.967c-0.104-0.697-1.556-0.33-1.449,0.389c0.005,0.035,0.011,0.07,0.017,0.105
				c0.011-0.096,0.021-0.192,0.028-0.288c0.033-0.035,0.067-0.07,0.101-0.104c0.184-0.067,0.363-0.135,0.545-0.202
				c0.136,0.043,0.271,0.086,0.406,0.129c-0.01,0.096-0.02,0.191-0.027,0.288c-0.034,0.035-0.067,0.07-0.102,0.105
				c-0.182,0.067-0.363,0.135-0.543,0.202c-0.121-0.035-0.24-0.07-0.361-0.104C303.643,9.09,305.018,8.517,304.578,7.876z"/>
		</g>
	</g>
	<g>
		<path fill="#4D4D4D" d="M343.196,76.062c-1.51,0.963-3.192,1.752-4.935,2.232c-1.746,0.488-3.574,0.681-5.372,0.523
			c-3.603-0.281-7.026-2.062-9.274-4.812c2.379,2.644,5.823,4.203,9.305,4.312c1.74,0.068,3.481-0.199,5.125-0.742
			c1.65-0.547,3.178-1.348,4.607-2.354L343.196,76.062z"/>
	</g>
	<g>
		<path fill="#4D4D4D" d="M310.5,50.925c-0.711-1.129-1.06-2.52-1.019-3.834c0.034-1.327,0.396-2.607,0.946-3.771
			c1.117-2.335,2.968-4.22,5.096-5.564c-2.036,1.479-3.723,3.465-4.636,5.764c-0.454,1.144-0.705,2.366-0.656,3.565
			c0.052,1.203,0.417,2.342,1.117,3.31L310.5,50.925z"/>
	</g>
	<g>
		<g>
			<path fill="#4D4D4D" d="M310.371,50.725c1.32,2.015,3.188,2.913,5.324,3.876c2.936,1.322,3.951,3.648,3.684,6.775
				c-0.162,1.912-0.52,3.697-0.252,5.625c0.414,2.984,2.498,5.535,4.451,7.688c0.434,0.479,1.139-0.229,0.707-0.707
				c-2.201-2.427-4.16-5.088-4.299-8.47c-0.08-1.945,0.492-3.856,0.45-5.808c-0.129-6.019-6.521-5.397-9.203-9.488
				C310.88,49.684,310.015,50.184,310.371,50.725L310.371,50.725z"/>
		</g>
	</g>
	<g>
		<path fill="#4D4D4D" d="M342.326,75.442c1.473-0.948,2.785-2.063,3.91-3.392c1.119-1.319,2.02-2.834,2.609-4.473
			c1.203-3.269,1.048-7.047-0.51-10.24c1.707,3.113,2.072,6.955,0.982,10.397c-0.529,1.726-1.395,3.349-2.499,4.784
			c-1.099,1.436-2.46,2.697-3.918,3.738L342.326,75.442z"/>
	</g>
	<g>
		<path fill="#4D4D4D" d="M331.035,37.115c-1.205-1.974-3.547-3.036-5.918-3.118c-2.387-0.108-4.804,0.635-6.867,1.925
			c1.973-1.426,4.365-2.364,6.873-2.424c1.248-0.028,2.523,0.164,3.705,0.665c1.176,0.489,2.266,1.325,3.02,2.367L331.035,37.115z"
			/>
	</g>
	<g>
		<g>
			<path fill="#4D4D4D" d="M330.88,36.887c1.774,2.609,1.052,5.488,1.795,8.366c0.494,1.912,2.27,3.295,4.037,3.965
				c1.785,0.679,3.699,0.931,5.445,1.721c2.92,1.32,4.604,4.311,5.936,7.062c0.279,0.582,1.143,0.074,0.863-0.504
				c-2.162-4.474-4.785-7.293-9.612-8.521c-3.044-0.775-5.625-2.098-5.991-5.586c-0.27-2.571-0.086-4.773-1.607-7.008
				C331.384,35.853,330.518,36.353,330.88,36.887L330.88,36.887z"/>
		</g>
	</g>
	<g>
		<polygon fill="#4D4D4D" points="302.31,16.734 316.151,38.145 301.48,17.293 		"/>
	</g>
	<g>
		<polygon fill="#4D4D4D" points="305.028,14.902 318.867,36.312 304.199,15.461 		"/>
	</g>
	<g>
		<polygon fill="#4D4D4D" points="302.485,8.739 296.451,12.209 301.925,7.91 		"/>
	</g>
	<g>
		<polygon fill="#4D4D4D" points="297.186,11.458 302.061,17.262 296.464,12.151 		"/>
	</g>
	<g>
		<polygon fill="#4D4D4D" points="302.305,8.573 304.828,15.502 301.391,8.978 		"/>
	</g>
</g>
<g>
	<g>
		<g>
			<path fill="#4D4D4D" d="M430.056,9.307c0.08,0.067,0.092,0.143,0.035,0.229c0.129-0.109,0.258-0.219,0.389-0.329
				c-0.035,0.02-0.068,0.04-0.104,0.06c0.396-0.086,0.789-0.172,1.186-0.259c-0.039-0.001-0.08-0.002-0.119-0.003
				c0.098,0.029,0.193,0.059,0.289,0.088c-0.131-0.036-0.16-0.108-0.092-0.214c-0.129,0.109-0.258,0.219-0.387,0.329
				c0.033-0.02,0.066-0.039,0.102-0.058c-0.396,0.086-0.789,0.172-1.186,0.259c0.041,0.001,0.08,0.002,0.121,0.003
				c-0.096-0.029-0.193-0.059-0.289-0.088c0.037,0.022,0.076,0.044,0.115,0.066c0.357,0.207,0.893,0.062,1.254-0.073
				c0.086-0.033,0.895-0.418,0.559-0.612c-0.457-0.261-1.014-0.177-1.49,0.004c-0.359,0.136-0.984,0.46-0.691,0.922
				c0.434,0.685,2.742-0.042,2.242-0.842C431.66,8.263,429.857,8.986,430.056,9.307z"/>
		</g>
	</g>
	<g>
		<g>
			<path fill="#4D4D4D" d="M440.783,8.672c0.002,0.022,0.002,0.044,0.002,0.067c0.014-0.128,0.025-0.255,0.039-0.383
				c-0.02,0.038-0.037,0.075-0.057,0.113c0.164-0.157,0.328-0.312,0.492-0.472c-0.037,0.02-0.072,0.04-0.107,0.059
				c0.17-0.046,0.342-0.092,0.514-0.138c-0.043-0.001-0.086-0.002-0.127-0.003c0.221,0.054,0.439,0.108,0.662,0.162
				c0.008,0.001,0.016,0.002,0.021,0.003c-0.012,0.127-0.025,0.255-0.039,0.383c0.02-0.037,0.037-0.074,0.057-0.111
				c-0.164,0.157-0.328,0.314-0.492,0.472c0.035-0.021,0.072-0.041,0.107-0.062c-0.256,0.043-0.51,0.087-0.764,0.13
				c0.043,0.001,0.084,0.003,0.127,0.005c-0.137-0.051-0.273-0.103-0.412-0.154c0.039,0.022,0.078,0.045,0.117,0.068
				c0.439,0.25,0.986,0.203,1.389-0.107c0.303-0.233,0.525-0.788,0.096-1.036c-0.492-0.281-1.021-0.325-1.529-0.036
				c-0.541,0.308-0.762,0.841-0.42,1.382c0.648,1.024,2.863-0.02,2.09-1.207C442.05,7.044,440.216,7.803,440.783,8.672z"/>
		</g>
	</g>
	<g>
		<g>
			<path fill="#4D4D4D" d="M435.74,12.696c-0.246-0.392-0.699-0.299-1.104-0.24c-0.303,0.045-1.354,0.303-1.289,0.792
				c0.07,0.536,0.717,0.449,1.113,0.375C434.923,13.538,435.822,13.316,435.74,12.696c-0.047-0.352-1.996,0.042-1.934,0.518
				c-0.01,0.052-0.02,0.104-0.031,0.156c0.432-0.151,0.861-0.302,1.295-0.454c-0.041,0.003-0.082,0.006-0.121,0.01
				c0.162,0.016,0.324,0.031,0.486,0.047c-0.145-0.045-0.182-0.133-0.109-0.263c-0.354,0.14-0.705,0.28-1.059,0.42
				c0.031-0.005,0.062-0.009,0.094-0.014c-0.203,0.009-0.408,0.018-0.611,0.027c0.02,0.023,0.039,0.047,0.059,0.071
				C434.097,13.674,435.876,12.916,435.74,12.696z"/>
		</g>
	</g>
	<g>
		<g>
			<path fill="#4D4D4D" d="M440.482,3.04c-0.51-0.737-2.424-0.166-2.281,0.787c0.08,0.545,1.049,0.417,1.383,0.328
				c0.484-0.129,1.047-0.44,0.965-1.007c-0.086-0.591-2.027-0.151-1.932,0.518c-0.008,0.038-0.014,0.076-0.021,0.113
				c0.066-0.086,0.131-0.173,0.197-0.26c-0.031,0.024-0.062,0.048-0.092,0.072c0.303-0.122,0.605-0.243,0.908-0.365
				c-0.039,0.004-0.078,0.008-0.117,0.012c0.211,0.015,0.42,0.031,0.631,0.046c0.01-0.03,0.02-0.061,0.027-0.091
				c-0.064,0.087-0.131,0.173-0.195,0.26c0.031-0.025,0.061-0.049,0.094-0.074c-0.385,0.127-0.768,0.255-1.152,0.382
				c-0.068,0.004-0.143,0.008-0.215,0.012C439.021,4.263,440.894,3.637,440.482,3.04z"/>
		</g>
	</g>
	<g>
		<path fill="#4D4D4D" d="M485.503,81.772c-1.697,1.088-3.584,1.978-5.541,2.524c-1.961,0.553-4.018,0.772-6.041,0.604
			c-4.053-0.309-7.914-2.297-10.457-5.388c2.674,2.981,6.557,4.756,10.488,4.889c1.965,0.081,3.934-0.216,5.791-0.823
			c1.869-0.611,3.598-1.514,5.217-2.646L485.503,81.772z"/>
	</g>
	<g>
		<path fill="#4D4D4D" d="M448.728,53.451c-0.801-1.265-1.193-2.813-1.152-4.291c0.033-1.488,0.434-2.928,1.051-4.238
			c1.244-2.629,3.32-4.76,5.715-6.282c-2.301,1.658-4.213,3.889-5.258,6.481c-0.518,1.291-0.807,2.672-0.758,4.032
			c0.051,1.365,0.461,2.666,1.25,3.767L448.728,53.451z"/>
	</g>
	<g>
		<g>
			<path fill="#4D4D4D" d="M448.582,53.227c1.525,2.351,3.748,3.321,6.209,4.453c3.252,1.495,4.268,4.276,3.949,7.692
				c-0.207,2.217-0.607,4.287-0.227,6.518c0.557,3.236,2.811,5.994,4.951,8.346c0.436,0.479,1.143-0.23,0.707-0.707
				c-2.492-2.736-4.719-5.77-4.867-9.593c-0.086-2.231,0.578-4.418,0.506-6.655c-0.219-6.668-7.393-5.977-10.365-10.558
				C449.095,52.183,448.228,52.684,448.582,53.227L448.582,53.227z"/>
		</g>
	</g>
	<g>
		<path fill="#4D4D4D" d="M484.597,81.175c1.658-1.075,3.143-2.342,4.406-3.846c1.26-1.494,2.273-3.207,2.934-5.062
			c1.35-3.694,1.16-7.958-0.604-11.556c1.912,3.517,2.311,7.842,1.078,11.713c-0.604,1.939-1.576,3.763-2.822,5.373
			c-1.24,1.609-2.771,3.025-4.416,4.191L484.597,81.175z"/>
	</g>
	<g>
		<path fill="#4D4D4D" d="M471.878,37.876c-0.701-1.112-1.695-1.975-2.875-2.567c-1.178-0.591-2.51-0.886-3.852-0.942
			c-2.699-0.111-5.426,0.739-7.746,2.2c2.229-1.597,4.932-2.643,7.752-2.7c1.398-0.026,2.834,0.195,4.158,0.761
			c1.314,0.553,2.529,1.49,3.369,2.662L471.878,37.876z"/>
	</g>
	<g>
		<g>
			<path fill="#4D4D4D" d="M471.708,37.627c1.891,2.736,1.32,5.751,1.869,8.835c0.422,2.367,2.367,4.121,4.52,4.977
				c2.041,0.811,4.244,1.08,6.252,1.98c3.324,1.494,5.254,4.875,6.764,8.013c0.279,0.581,1.143,0.073,0.863-0.505
				c-2.436-5.059-5.398-8.206-10.848-9.592c-3.355-0.854-6.283-2.311-6.736-6.146c-0.35-2.943-0.049-5.504-1.82-8.069
				C472.208,36.595,471.339,37.095,471.708,37.627L471.708,37.627z"/>
		</g>
	</g>
	<g>
		<polygon fill="#4D4D4D" points="437.328,12.341 454.751,39.068 436.5,12.9 		"/>
	</g>
	<g>
		<polygon fill="#4D4D4D" points="440.656,10.095 457.988,36.683 439.828,10.654 		"/>
	</g>
	<g>
		<polygon fill="#4D4D4D" points="437.566,2.396 430.238,6.73 437.007,1.567 		"/>
	</g>
	<g>
		<polygon fill="#4D4D4D" points="431.054,5.894 437.117,12.925 430.333,6.586 		"/>
	</g>
	<g>
		<polygon fill="#4D4D4D" points="437.312,2.322 440.509,10.771 436.398,2.728 		"/>
	</g>
</g>
<g>
	<g>
		<g>
		</g>
	</g>
</g>
<g>
	<g>
		<g>
			<path fill="#4D4D4D" d="M137.917,21.228l-0.02,0.093c-0.016,0.06-0.04,0.129-0.065,0.19c-0.048,0.102-0.101,0.188-0.161,0.265
				c-0.12,0.152-0.252,0.267-0.383,0.359c-0.263,0.185-0.525,0.301-0.786,0.403c-0.521,0.198-1.037,0.319-1.552,0.419
				c-1.031,0.196-2.058,0.294-3.083,0.365c-2.051,0.132-4.095,0.129-6.135,0.071c-4.08-0.126-8.142-0.489-12.183-1
				c-4.04-0.516-8.062-1.18-12.039-2.076c-1.987-0.452-3.964-0.959-5.908-1.597c-0.971-0.323-1.935-0.673-2.871-1.114
				c-0.467-0.223-0.928-0.465-1.364-0.773c-0.217-0.156-0.429-0.326-0.617-0.546c-0.178-0.214-0.367-0.512-0.326-0.883
				c0.049-0.368,0.308-0.614,0.532-0.774c0.235-0.166,0.483-0.277,0.731-0.374c0.498-0.189,1.003-0.309,1.51-0.407
				c1.014-0.193,2.033-0.291,3.052-0.361c2.039-0.131,4.077-0.128,6.111-0.07c4.069,0.126,8.125,0.488,12.159,0.997
				c4.033,0.515,8.049,1.178,12.016,2.072c1.981,0.452,3.953,0.957,5.885,1.591c0.964,0.321,1.922,0.669,2.842,1.103
				c0.459,0.218,0.911,0.457,1.326,0.75c0.386,0.291,0.867,0.657,0.838,1.195L137.917,21.228z M137.427,21.129
				c0.023-0.537-0.459-0.896-0.847-1.182c-0.417-0.289-0.871-0.521-1.331-0.734c-0.922-0.423-1.882-0.761-2.848-1.071
				c-1.936-0.613-3.909-1.098-5.893-1.528c-3.97-0.852-7.987-1.473-12.019-1.946c-4.032-0.467-8.083-0.786-12.138-0.87
				c-2.026-0.038-4.055-0.02-6.071,0.131c-1.006,0.08-2.012,0.187-2.993,0.384c-0.489,0.1-0.974,0.221-1.425,0.398
				c-0.433,0.165-0.91,0.447-0.942,0.756c-0.036,0.308,0.361,0.688,0.743,0.948c0.397,0.275,0.84,0.504,1.292,0.713
				c0.907,0.417,1.859,0.752,2.819,1.06c1.924,0.609,3.892,1.093,5.87,1.521c3.96,0.85,7.971,1.469,11.995,1.942
				c4.025,0.466,8.069,0.786,12.113,0.869c2.021,0.037,4.044,0.019,6.047-0.131c1-0.079,1.998-0.187,2.962-0.381
				c0.48-0.098,0.955-0.218,1.382-0.386c0.424-0.159,0.815-0.425,0.792-0.593L137.427,21.129z"/>
		</g>
		<g>
			<polygon fill="#4D4D4D" points="114.55,18.957 114.05,63.43 113.55,18.957 			"/>
		</g>
		<g>
			<polygon fill="#4D4D4D" points="114.388,63.798 103.596,73.001 113.712,63.061 			"/>
		</g>
		<g>
			<polygon fill="#4D4D4D" points="114.388,63.061 124.504,73.001 113.712,63.798 			"/>
		</g>
	</g>
	<g>
		<path fill="#4D4D4D" d="M187.085,16.109c-0.008,0.009-0.013,0.024-0.021,0.033c-0.183,0.217-0.377,0.374-0.573,0.518
			c-0.392,0.281-0.794,0.496-1.199,0.693c-0.812,0.39-1.639,0.698-2.471,0.982c-1.666,0.561-3.355,1.008-5.052,1.409
			c-3.396,0.793-6.828,1.387-10.275,1.855c-3.448,0.461-6.913,0.797-10.393,0.931c-1.74,0.062-3.483,0.079-5.229-0.021
			c-0.873-0.054-1.747-0.131-2.618-0.289c-0.436-0.081-0.871-0.18-1.302-0.34c-0.215-0.082-0.43-0.176-0.637-0.319
			c-0.199-0.149-0.426-0.332-0.48-0.703c-0.038-0.292,0.126-0.587,0.279-0.764c0.161-0.192,0.342-0.339,0.527-0.475
			c0.372-0.267,0.764-0.478,1.162-0.67c0.796-0.383,1.617-0.688,2.442-0.97c1.654-0.556,3.337-1.001,5.029-1.4
			c3.386-0.791,6.811-1.383,10.251-1.85c3.441-0.461,6.9-0.796,10.369-0.931c1.734-0.063,3.472-0.079,5.205,0.02
			c0.866,0.053,1.732,0.13,2.587,0.286c0.426,0.079,0.851,0.177,1.259,0.328c0.382,0.155,0.859,0.353,0.954,0.802L187.085,16.109z
			 M185.717,14.391c-0.34-0.105-0.684-0.195-1.035-0.256c-0.854-0.146-1.719-0.211-2.584-0.254
			c-1.731-0.078-3.466-0.041-5.196,0.043c-3.461,0.175-6.911,0.552-10.339,1.053c-3.427,0.507-6.838,1.14-10.199,1.966
			c-1.678,0.417-3.347,0.88-4.974,1.45c-0.811,0.288-1.616,0.599-2.378,0.977c-0.38,0.19-0.752,0.396-1.082,0.64
			c-0.319,0.237-0.641,0.549-0.594,0.817c0.023,0.191,0.426,0.451,0.796,0.568c0.384,0.138,0.799,0.229,1.216,0.3
			c0.837,0.143,1.696,0.208,2.554,0.25c1.719,0.077,3.448,0.041,5.172-0.042c3.451-0.175,6.894-0.55,10.315-1.05
			c3.42-0.506,6.824-1.138,10.174-1.963c1.673-0.416,3.335-0.878,4.951-1.444c0.805-0.286,1.603-0.594,2.35-0.965
			c0.372-0.186,0.734-0.388,1.044-0.617c0.313-0.219,0.553-0.523,0.493-0.601L185.717,14.391z"/>
	</g>
	<g>
		<polygon fill="#4D4D4D" points="167.494,18.039 166.994,64.25 166.494,18.039 		"/>
	</g>
	<g>
		<path fill="#4D4D4D" d="M151.915,37.047c2.546-0.521,5.072-1.181,7.54-2.002c1.226-0.419,2.461-0.862,3.575-1.47
			c0.271-0.154,0.544-0.327,0.731-0.521c0.098-0.088,0.125-0.213,0.122-0.174c0.05,0.04-0.106-0.07-0.239-0.089
			c-0.582-0.133-1.252-0.131-1.894-0.13c-2.599,0.054-5.206,0.372-7.789,0.76c-2.581,0.411-5.163,0.888-7.658,1.686
			c2.474-0.867,5.047-1.416,7.623-1.898c2.582-0.459,5.177-0.851,7.814-0.979c0.664-0.016,1.316-0.047,2.019,0.089
			c0.169,0.066,0.383,0.035,0.588,0.376c0.106,0.367-0.092,0.558-0.199,0.704c-0.26,0.288-0.547,0.471-0.835,0.653
			c-1.163,0.691-2.389,1.18-3.621,1.655c-2.47,0.927-4.994,1.688-7.557,2.315L151.915,37.047z"/>
	</g>
	<g>
		<path fill="#4D4D4D" d="M161.869,24.95c0.083-0.057-0.371-0.276-0.761-0.335c-0.41-0.082-0.853-0.119-1.296-0.139
			c-0.89-0.036-1.796,0.002-2.7,0.07c-1.809,0.142-3.618,0.417-5.406,0.769c-1.792,0.358-3.569,0.794-5.309,1.357
			c-0.868,0.284-1.729,0.597-2.558,0.979c-0.414,0.193-0.822,0.4-1.202,0.653c-0.19,0.125-0.372,0.266-0.53,0.429
			c-0.154,0.16-0.301,0.366-0.265,0.602c-0.048-0.234,0.092-0.454,0.241-0.623c0.153-0.173,0.331-0.324,0.517-0.458
			c0.373-0.273,0.775-0.501,1.183-0.714c0.818-0.423,1.67-0.777,2.53-1.103c1.724-0.646,3.495-1.167,5.281-1.609
			c1.792-0.438,3.602-0.799,5.442-1.028c0.92-0.111,1.847-0.194,2.792-0.198c0.473,0,0.949,0.015,1.442,0.09
			c0.247,0.037,0.499,0.092,0.768,0.195c0.133,0.05,0.277,0.125,0.421,0.231c0.08,0.078,0.135,0.102,0.228,0.246
			c0.1,0.158,0.1,0.198,0.123,0.248L161.869,24.95z"/>
	</g>
	<g>
		<polygon fill="#4D4D4D" points="142.242,34.541 141.842,29.334 143.227,34.369 		"/>
	</g>
	<g>
		<polygon fill="#4D4D4D" points="163.635,32.919 162.339,24.781 164.612,32.702 		"/>
	</g>
	<g>
		<path fill="#4D4D4D" d="M132.321,36.84c-2.37-0.57-4.775-1.034-7.187-1.439c-2.41-0.385-4.846-0.772-7.261-0.833
			c-0.299-0.001-0.599,0.006-0.88,0.043c-0.138,0.018-0.278,0.049-0.368,0.09c-0.044,0.018-0.053,0.043-0.036,0.005
			c0.003-0.002-0.006-0.011,0.012,0.03c0.083,0.161,0.357,0.351,0.599,0.494c0.253,0.15,0.523,0.283,0.798,0.408
			c1.104,0.496,2.269,0.886,3.436,1.25c2.341,0.717,4.726,1.307,7.135,1.777c-2.426-0.378-4.834-0.876-7.213-1.507
			c-1.188-0.322-2.371-0.667-3.525-1.133c-0.288-0.119-0.575-0.246-0.856-0.398c-0.277-0.168-0.567-0.292-0.808-0.661
			c-0.055-0.092-0.104-0.263-0.054-0.413c0.066-0.187,0.195-0.256,0.284-0.307c0.188-0.092,0.353-0.123,0.517-0.152
			c0.326-0.053,0.641-0.069,0.955-0.078c2.498-0.012,4.938,0.304,7.381,0.617c2.44,0.333,4.872,0.725,7.292,1.229L132.321,36.84z"/>
	</g>
	<g>
		<path fill="#4D4D4D" d="M137.132,30.279c0.097-0.003-0.222-0.368-0.547-0.562c-0.334-0.223-0.715-0.418-1.102-0.598
			c-0.778-0.359-1.599-0.658-2.429-0.929c-1.663-0.539-3.373-0.958-5.097-1.302c-1.726-0.339-3.469-0.604-5.225-0.741
			c-0.877-0.066-1.758-0.104-2.638-0.068c-0.439,0.02-0.879,0.055-1.31,0.14c-0.216,0.042-0.428,0.1-0.629,0.188
			c-0.196,0.085-0.403,0.215-0.457,0.438c0.043-0.226,0.249-0.371,0.443-0.466c0.2-0.098,0.414-0.167,0.629-0.219
			c0.432-0.106,0.874-0.162,1.315-0.203c0.885-0.077,1.773-0.082,2.659-0.057c1.773,0.055,3.541,0.239,5.297,0.498
			c1.755,0.266,3.502,0.606,5.227,1.076c0.862,0.238,1.718,0.504,2.562,0.845c0.422,0.174,0.841,0.361,1.254,0.609
			c0.207,0.124,0.413,0.265,0.616,0.457c0.101,0.094,0.203,0.214,0.293,0.364c0.044,0.1,0.084,0.141,0.116,0.308
			c0.032,0.183,0.017,0.217,0.019,0.27L137.132,30.279z"/>
	</g>
	<g>
		<polygon fill="#4D4D4D" points="115.851,34.567 117.699,26.842 116.836,34.738 		"/>
	</g>
	<g>
		<polygon fill="#4D4D4D" points="136.341,34.812 137.631,30.301 137.327,34.983 		"/>
	</g>
	<g>
		<polygon fill="#4D4D4D" points="167.332,63.798 156.541,73.001 166.656,63.061 		"/>
	</g>
	<g>
		<path fill="#4D4D4D" d="M162.437,55.274c0.009,5.576-2.314,11.118-6.285,15.021c-3.936,3.945-9.471,6.215-15.027,6.164
			c-5.557,0.01-11.056-2.299-14.94-6.248c-3.92-3.914-6.177-9.416-6.127-14.938c-0.007-5.521,2.286-10.99,6.214-14.85
			c3.89-3.898,9.358-6.143,14.849-6.092c5.492-0.007,10.923,2.272,14.762,6.177c3.875,3.867,6.108,9.301,6.055,14.76L162.437,55.274
			z M161.937,55.268c0.01-5.46-2.262-10.858-6.144-14.672c-3.842-3.85-9.249-6.066-14.673-6.016
			c-5.428-0.008-10.793,2.25-14.583,6.107c-3.83,3.82-6.027,9.191-5.979,14.584c-0.007,5.395,2.235,10.729,6.069,14.497
			c3.801,3.804,9.136,5.989,14.498,5.94c5.362,0.006,10.661-2.223,14.408-6.033c3.781-3.78,5.954-9.073,5.904-14.416L161.937,55.268
			z"/>
	</g>
	<g>
		<polygon fill="#4D4D4D" points="167.332,63.061 177.449,73.001 166.656,63.798 		"/>
	</g>
	<g>
		<polygon fill="#4D4D4D" points="124.135,66.824 120.308,74.126 123.223,66.414 		"/>
	</g>
	<g>
		<polygon fill="#4D4D4D" points="159.024,66.414 161.937,74.126 158.112,66.824 		"/>
	</g>
	<g>
		<path fill="#4D4D4D" d="M139.809,34.652c-0.208-0.077-0.356-0.153-0.505-0.23c0.01-0.077,0.002-0.154,0.005-0.23v-0.46v-0.46
			v-0.23c0.152-0.077,0.299-0.153,0.5-0.23c0.201,0.077,0.348,0.153,0.5,0.23v0.23v0.46v0.46c0.002,0.077-0.005,0.153,0.005,0.23
			C140.165,34.499,140.018,34.576,139.809,34.652z"/>
	</g>
	<g>
		<path fill="#4D4D4D" d="M137.257,32.811c0.213-0.208,0.427-0.356,0.641-0.505c0.213,0.01,0.427,0.002,0.641,0.005h1.281h1.281
			h0.641c0.213,0.152,0.427,0.299,0.641,0.5c-0.213,0.201-0.427,0.348-0.641,0.5h-0.641h-1.281h-1.281
			c-0.213,0.002-0.427-0.005-0.641,0.005C137.685,33.167,137.471,33.019,137.257,32.811z"/>
	</g>
</g>
<g>
	<g>
		<path fill="#4D4D4D" d="M553.511,62.234c0.906,1.417,1.553,3.053,1.842,4.715c0.299,1.668,0.262,3.385-0.102,5.023
			c-0.707,3.285-2.764,6.212-5.549,7.971c2.691-1.9,4.539-4.879,5.059-8.066c0.268-1.59,0.217-3.225-0.143-4.777
			c-0.361-1.562-1.021-3.016-1.951-4.325L553.511,62.234z"/>
	</g>
	<g>
		<path fill="#4D4D4D" d="M570.835,66.375c-1.418,0.904-3.051,1.549-4.715,1.84c-1.668,0.297-3.385,0.26-5.023-0.103
			c-3.285-0.709-6.209-2.769-7.967-5.554c1.898,2.695,4.877,4.543,8.062,5.062c1.59,0.268,3.225,0.219,4.777-0.143
			c1.562-0.359,3.018-1.018,4.326-1.947L570.835,66.375z"/>
	</g>
	<g>
		<path fill="#4D4D4D" d="M548.005,55.082c0.439,1.49,0.564,3.08,0.252,4.621c-0.266,1.311-0.85,2.575-1.756,3.584
			c-0.898,1.008-2.1,1.746-3.41,2.088c-2.641,0.694-5.445-0.183-7.484-1.812c-1.035-0.806-1.904-1.851-2.58-2.925l-2.111-3.155
			L514.037,32.24c-1.438-2.142-2.121-4.845-1.604-7.406c0.258-1.271,0.826-2.495,1.699-3.467c0.867-0.973,2.025-1.685,3.287-2.011
			c2.547-0.669,5.273,0.175,7.268,1.765c1.016,0.788,1.855,1.794,2.529,2.867l2.109,3.156l16.879,25.243L548.005,55.082z
			 M546.205,52.386l-17.086-25.104l-2.135-3.138c-0.682-1.062-1.496-2.017-2.49-2.778c-1.945-1.528-4.578-2.304-6.979-1.649
			c-1.188,0.317-2.271,0.997-3.08,1.918c-0.812,0.92-1.34,2.076-1.572,3.283c-0.475,2.431,0.197,5.008,1.588,7.041l17.088,25.103
			l2.135,3.139c0.68,1.059,1.465,1.975,2.438,2.723c1.895,1.492,4.455,2.238,6.758,1.605c1.139-0.304,2.18-0.958,2.959-1.844
			c0.777-0.885,1.287-1.998,1.514-3.167c0.455-2.358-0.188-4.858-1.555-6.862L546.205,52.386z"/>
	</g>
	<g>
		<polygon fill="#4D4D4D" points="552.855,63.052 519.263,12.36 553.683,62.494 		"/>
	</g>
	<g>
		<polygon fill="#4D4D4D" points="522.13,38.622 530.107,33.845 522.689,39.451 		"/>
	</g>
	<g>
		<polygon fill="#4D4D4D" points="527.902,47.171 535.875,42.399 528.458,48.001 		"/>
	</g>
	<g>
		<polygon fill="#4D4D4D" points="525.058,42.963 533.039,38.187 525.619,43.792 		"/>
	</g>
	<g>
		<polygon fill="#4D4D4D" points="549.517,79.671 570.625,66.041 550.078,80.5 		"/>
	</g>
	<g>
		<g>
			<path fill="#4D4D4D" d="M534.917,30.299c0,0.086,0.029,0.128,0.09,0.124c0.256-0.155,0.514-0.309,0.771-0.464
				c-0.027,0.007-0.059,0.015-0.082,0.022c0.236-0.014,0.479-0.027,0.721-0.041c0.039-0.038,0.039-0.057-0.004-0.057
				c-0.256,0.155-0.512,0.309-0.771,0.464c0.027-0.007,0.059-0.014,0.082-0.021c-0.236,0.014-0.479,0.027-0.721,0.041
				c-0.006,0.017-0.014,0.034-0.02,0.051c0.438,0.51,2.289-0.181,1.793-0.757c-0.617-0.719-2.764-0.226-2.205,0.87
				c0.494,0.973,2.832,0.337,2.273-0.75C536.507,29.115,534.63,29.741,534.917,30.299z"/>
		</g>
	</g>
	<g>
		<g>
			<path fill="#4D4D4D" d="M537.822,34.607c0.023,0.065,0.059,0.123,0.104,0.174c0.264-0.138,0.521-0.276,0.783-0.414
				c-0.027,0.007-0.055,0.014-0.082,0.021c0.295-0.011,0.59-0.022,0.885-0.033c-0.059-0.016-0.225-0.181-0.203-0.21
				c-0.26,0.138-0.52,0.276-0.779,0.414c0.025-0.007,0.055-0.015,0.082-0.023c-0.295,0.011-0.592,0.022-0.887,0.033
				c0.074,0.014,0.127,0.057,0.158,0.131c0.363,0.429,2.203-0.237,1.812-0.704c-0.553-0.649-2.711-0.158-2.217,0.839
				c0.438,0.873,2.787,0.245,2.275-0.746C539.46,33.523,537.603,34.185,537.822,34.607z"/>
		</g>
	</g>
	<g>
		<g>
			<path fill="#4D4D4D" d="M540.666,38.822c0.018,0.062,0.051,0.117,0.098,0.159c0.264-0.143,0.521-0.286,0.779-0.429
				c-0.027,0.007-0.055,0.014-0.082,0.021c0.297-0.006,0.592-0.012,0.889-0.018c-0.055-0.015-0.217-0.156-0.193-0.184
				c-0.264,0.143-0.521,0.286-0.779,0.429c0.027-0.007,0.055-0.015,0.084-0.022c-0.297,0.006-0.594,0.012-0.889,0.018
				c0.072,0.009,0.129,0.051,0.162,0.126c0.387,0.452,2.229-0.222,1.803-0.72c-0.574-0.668-2.732-0.185-2.215,0.849
				c0.449,0.9,2.797,0.276,2.275-0.748C542.294,37.707,540.427,38.354,540.666,38.822z"/>
		</g>
	</g>
	<g>
		<path fill="#4D4D4D" d="M519.404,13.204c-0.604-1.011-1.131-2.08-1.512-3.196c-0.188-0.559-0.342-1.132-0.408-1.721
			c-0.031-0.294-0.041-0.593,0.01-0.887c0.047-0.288,0.166-0.596,0.424-0.749c-0.461,0.404-0.35,1.075-0.248,1.605
			c0.125,0.557,0.332,1.094,0.57,1.613c0.484,1.038,1.102,2.005,1.789,2.92L519.404,13.204z"/>
	</g>
	<g>
		<path fill="#4D4D4D" d="M514.302,8.597c0.355-0.215,0.816-0.163,1.113-0.057c0.32,0.106,0.594,0.264,0.848,0.436
			c0.506,0.346,0.939,0.755,1.348,1.183c0.807,0.862,1.486,1.816,2.088,2.812c-0.703-0.925-1.48-1.792-2.348-2.541
			c-0.436-0.37-0.895-0.714-1.379-0.973c-0.467-0.253-1.055-0.437-1.301-0.208L514.302,8.597z"/>
	</g>
	<g>
		<polygon fill="#4D4D4D" points="518.08,6.892 514.458,8.88 517.66,6.27 		"/>
	</g>
</g>
<g>
	<g>
		<g>
			<path fill="#4D4D4D" d="M64.039,15.199c0.022,0.049-0.062,0.48-0.165,0.604c-0.102,0.168-0.219,0.298-0.337,0.408
				c-0.237,0.218-0.481,0.373-0.727,0.511c-0.491,0.277-0.99,0.474-1.491,0.658c-1.004,0.358-2.021,0.622-3.044,0.848
				c-2.046,0.447-4.114,0.731-6.188,0.919c-2.074,0.18-4.158,0.265-6.244,0.187c-1.042-0.042-2.086-0.122-3.125-0.295
				c-0.52-0.09-1.039-0.196-1.551-0.375c-0.256-0.088-0.512-0.195-0.758-0.352c-0.234-0.15-0.519-0.386-0.571-0.787
				c-0.015-0.151,0.047-0.385,0.131-0.516c0.085-0.139,0.187-0.252,0.293-0.351c0.213-0.196,0.444-0.344,0.68-0.476
				c0.47-0.266,0.96-0.46,1.454-0.64c0.988-0.352,1.998-0.614,3.013-0.839c2.032-0.443,4.091-0.727,6.156-0.914
				c2.065-0.18,4.14-0.264,6.212-0.186c1.035,0.042,2.07,0.122,3.093,0.292c0.51,0.089,1.02,0.194,1.51,0.365
				c0.245,0.084,0.486,0.188,0.705,0.326c0.216,0.135,0.424,0.334,0.455,0.599L64.039,15.199z M63.539,15.184
				c-0.036-0.264-0.247-0.456-0.463-0.585c-0.22-0.134-0.461-0.231-0.707-0.31c-0.49-0.161-1-0.255-1.51-0.333
				c-1.022-0.149-2.055-0.208-3.087-0.229c-2.066-0.037-4.131,0.089-6.184,0.309c-2.051,0.228-4.094,0.551-6.096,1.031
				c-1,0.242-1.991,0.521-2.945,0.883c-0.474,0.184-0.945,0.383-1.371,0.636c-0.408,0.228-0.87,0.608-0.84,0.891
				c0.031,0.279,0.557,0.546,1.001,0.681c0.468,0.154,0.968,0.247,1.469,0.324c1.005,0.147,2.031,0.205,3.055,0.226
				c2.051,0.036,4.108-0.089,6.152-0.308c2.042-0.227,4.076-0.549,6.065-1.025c0.992-0.24,1.976-0.519,2.915-0.875
				c0.465-0.18,0.928-0.376,1.333-0.618c0.402-0.222,0.785-0.575,0.713-0.712L63.539,15.184z"/>
		</g>
		<g>
			<path fill="#4D4D4D" d="M63.95,62.074c-0.006,0.059,0.005,0.039-0.017,0.178c-0.02,0.119-0.054,0.197-0.084,0.256
				c-0.065,0.137-0.144,0.23-0.223,0.318c-0.158,0.166-0.319,0.274-0.479,0.375c-0.319,0.194-0.638,0.33-0.957,0.449
				c-0.64,0.236-1.282,0.404-1.929,0.543c-1.292,0.275-2.594,0.434-3.897,0.523c-1.304,0.086-2.612,0.104-3.914,0.006
				c-0.65-0.051-1.3-0.131-1.938-0.271c-0.318-0.072-0.635-0.16-0.935-0.291c-0.282-0.131-0.632-0.309-0.678-0.65
				c0.067,0.334,0.416,0.48,0.701,0.593c0.302,0.108,0.619,0.175,0.936,0.228c0.636,0.1,1.281,0.137,1.925,0.146
				c1.289,0.015,2.577-0.087,3.853-0.252c1.274-0.171,2.541-0.41,3.767-0.755c0.611-0.174,1.215-0.375,1.777-0.625
				c0.28-0.125,0.551-0.266,0.776-0.426c0.236-0.156,0.374-0.354,0.315-0.357L63.95,62.074z"/>
		</g>
		<g>
			<path fill="#4D4D4D" d="M40.334,18.678c0.138-0.076,0.1-0.074,0.118-0.084c0.004-0.005,0,0-0.006,0.009
				c-0.011,0.019-0.028,0.052-0.042,0.091c-0.03,0.078-0.057,0.176-0.079,0.277c-0.044,0.205-0.073,0.429-0.093,0.656
				c-0.04,0.456-0.045,0.927-0.038,1.4c0.017,0.947,0.09,1.902,0.185,2.856c0.192,1.91,0.474,3.818,0.789,5.72
				c0.635,3.805,1.41,7.592,2.236,11.368c1.661,7.55,3.54,15.056,5.499,22.538c-2.119-7.438-4.16-14.903-5.986-22.425
				c-0.908-3.763-1.767-7.539-2.487-11.35c-0.357-1.906-0.683-3.82-0.919-5.755c-0.117-0.968-0.213-1.94-0.252-2.927
				c-0.018-0.494-0.024-0.99,0.009-1.499c0.017-0.255,0.043-0.512,0.095-0.781c0.027-0.135,0.06-0.273,0.113-0.422
				c0.027-0.075,0.059-0.152,0.106-0.239c0.024-0.043,0.053-0.089,0.095-0.142c0.056-0.056,0.06-0.102,0.252-0.204L40.334,18.678z"
				/>
		</g>
		<g>
			<path fill="#4D4D4D" d="M63.752,15.313c0.212,0.063,0.225,0.107,0.292,0.152c0.051,0.044,0.088,0.084,0.121,0.123
				c0.064,0.077,0.11,0.147,0.15,0.216c0.081,0.137,0.138,0.266,0.189,0.395c0.102,0.255,0.175,0.503,0.239,0.751
				c0.127,0.495,0.213,0.984,0.287,1.474c0.145,0.979,0.23,1.953,0.295,2.928c0.125,1.948,0.162,3.893,0.164,5.835
				c0,3.885-0.142,7.762-0.335,11.634c-0.396,7.745-1.012,15.472-1.71,23.188c0.532-7.729,0.982-15.467,1.21-23.208
				c0.11-3.87,0.167-7.742,0.085-11.606c-0.044-1.931-0.122-3.862-0.287-5.777c-0.084-0.957-0.189-1.911-0.349-2.846
				c-0.081-0.467-0.173-0.93-0.297-1.371c-0.062-0.22-0.132-0.435-0.213-0.628c-0.041-0.096-0.085-0.188-0.129-0.257
				c-0.022-0.035-0.044-0.065-0.058-0.081c-0.007-0.007-0.012-0.011-0.007-0.006c0.021,0.006-0.017,0.013,0.137,0.061L63.752,15.313
				z"/>
		</g>
	</g>
	<g>
		<g>
			<g>
				<path fill="#4D4D4D" d="M36.643,25.75c-0.208-0.092-0.356-0.184-0.505-0.275c0.01-0.091,0.002-0.183,0.005-0.275v-0.55V24.1
					v-0.275c0.152-0.092,0.299-0.184,0.5-0.275c0.201,0.092,0.348,0.184,0.5,0.275V24.1v0.55v0.55
					c0.002,0.092-0.005,0.184,0.005,0.275C36.999,25.567,36.852,25.659,36.643,25.75z"/>
			</g>
			<g>
				<path fill="#4D4D4D" d="M33.593,23.549c0.255-0.208,0.51-0.356,0.766-0.505l0.766,0.005h1.531h1.531h0.766
					c0.255,0.152,0.51,0.299,0.766,0.5c-0.255,0.201-0.51,0.348-0.766,0.5h-0.766h-1.531h-1.531l-0.766,0.005
					C34.104,23.905,33.849,23.758,33.593,23.549z"/>
			</g>
		</g>
		<g>
			<polygon fill="#4D4D4D" points="37.143,24.696 36.643,64.783 36.143,24.696 			"/>
		</g>
		<g>
			<polygon fill="#4D4D4D" points="36.981,64.115 26.19,73.319 36.305,63.376 			"/>
		</g>
		<g>
			<polygon fill="#4D4D4D" points="36.981,63.376 47.098,73.319 36.305,64.115 			"/>
		</g>
	</g>
	<g>
		<g>
			<path fill="#4D4D4D" d="M33.685,17.247c-0.017,0.06-0.012,0.102-0.092,0.277c-0.075,0.161-0.132,0.199-0.205,0.292
				c-0.138,0.134-0.282,0.236-0.418,0.31c-0.276,0.151-0.543,0.247-0.807,0.322c-0.528,0.152-1.047,0.236-1.565,0.303
				c-1.036,0.128-2.063,0.167-3.089,0.174c-2.052,0.006-4.088-0.14-6.119-0.373c-2.022-0.239-4.041-0.568-6.028-1.043
				c-0.994-0.241-1.981-0.515-2.949-0.873c-0.483-0.182-0.962-0.379-1.425-0.638c-0.231-0.128-0.458-0.275-0.671-0.464
				c-0.199-0.183-0.451-0.44-0.434-0.857c0.009-0.152,0.13-0.378,0.239-0.481c0.115-0.11,0.238-0.199,0.362-0.265
				c0.249-0.136,0.501-0.228,0.755-0.3c0.507-0.146,1.017-0.229,1.527-0.295c1.02-0.125,2.041-0.165,3.06-0.171
				c2.038-0.006,4.068,0.139,6.087,0.371c2.016,0.239,4.025,0.566,6,1.038c0.987,0.239,1.967,0.512,2.92,0.864
				c0.475,0.179,0.946,0.373,1.39,0.622c0.222,0.123,0.436,0.263,0.626,0.432c0.186,0.165,0.367,0.385,0.35,0.647L33.685,17.247z
				 M33.197,17.139c0.011-0.263-0.172-0.476-0.36-0.636c-0.192-0.163-0.408-0.299-0.631-0.416c-0.446-0.239-0.919-0.422-1.396-0.591
				c-0.956-0.331-1.938-0.583-2.926-0.8c-1.979-0.43-3.985-0.715-6-0.912c-2.013-0.189-4.037-0.292-6.054-0.244
				c-1.008,0.027-2.016,0.086-3.006,0.229c-0.493,0.074-0.985,0.166-1.45,0.31c-0.232,0.07-0.457,0.16-0.65,0.271
				c-0.099,0.054-0.179,0.12-0.247,0.185c-0.06,0.085-0.075,0.083-0.096,0.186c-0.02,0.25,0.462,0.605,0.864,0.811
				c0.427,0.228,0.892,0.409,1.36,0.575c0.941,0.326,1.917,0.576,2.897,0.792c1.966,0.428,3.963,0.711,5.971,0.907
				c2.002,0.188,4.02,0.291,6.023,0.243c1-0.027,2.001-0.087,2.976-0.228c0.485-0.073,0.968-0.163,1.412-0.302
				c0.425-0.116,0.899-0.392,0.827-0.489L33.197,17.139z"/>
		</g>
		<g>
			<path fill="#4D4D4D" d="M25.466,60.643c0.014,0.003-0.102,0.34-0.193,0.416c-0.095,0.116-0.193,0.192-0.288,0.257
				c-0.189,0.124-0.366,0.191-0.541,0.251c-0.347,0.117-0.68,0.175-1.011,0.224c-0.662,0.09-1.312,0.115-1.959,0.115
				c-1.295-0.005-2.574-0.117-3.845-0.293c-1.266-0.18-2.526-0.424-3.757-0.771c-0.615-0.174-1.224-0.375-1.811-0.633
				c-0.292-0.129-0.581-0.271-0.847-0.451c-0.248-0.176-0.56-0.402-0.548-0.74c0.011,0.334,0.327,0.529,0.581,0.688
				c0.272,0.158,0.565,0.28,0.861,0.389c0.594,0.215,1.207,0.373,1.824,0.507c1.237,0.263,2.492,0.422,3.752,0.519
				c1.255,0.09,2.521,0.116,3.767,0.039c0.622-0.041,1.242-0.107,1.834-0.23c0.293-0.061,0.586-0.135,0.835-0.238
				c0.262-0.093,0.44-0.271,0.366-0.248L25.466,60.643z"/>
		</g>
		<g>
			<path fill="#4D4D4D" d="M10.222,15.882c0.215-0.076,0.117-0.064,0.134-0.057c-0.012,0.012-0.032,0.038-0.052,0.069
				c-0.041,0.063-0.083,0.146-0.122,0.235c-0.078,0.178-0.145,0.38-0.204,0.585c-0.118,0.414-0.206,0.85-0.281,1.29
				c-0.149,0.881-0.246,1.783-0.322,2.686c-0.148,1.809-0.21,3.632-0.239,5.456c-0.052,3.649,0.033,7.306,0.17,10.96
				c0.282,7.31,0.782,14.612,1.361,21.91C9.921,51.734,9.255,44.442,8.806,37.13c-0.22-3.656-0.39-7.317-0.42-10.987
				c-0.013-1.835,0.007-3.673,0.116-5.516c0.057-0.921,0.133-1.844,0.269-2.771c0.069-0.463,0.151-0.927,0.273-1.397
				c0.062-0.235,0.133-0.471,0.232-0.715c0.05-0.122,0.107-0.246,0.187-0.376c0.041-0.066,0.086-0.134,0.151-0.208
				c0.094-0.076,0.08-0.149,0.406-0.259L10.222,15.882z"/>
		</g>
		<g>
			<path fill="#4D4D4D" d="M33.462,17.318c0.291,0.167,0.265,0.234,0.342,0.325c0.049,0.083,0.082,0.158,0.11,0.229
				c0.054,0.143,0.088,0.274,0.116,0.402c0.055,0.256,0.082,0.5,0.102,0.742c0.037,0.482,0.035,0.953,0.021,1.42
				c-0.031,0.934-0.118,1.853-0.226,2.767c-0.219,1.828-0.524,3.635-0.862,5.434c-0.681,3.597-1.498,7.16-2.363,10.708
				c-1.741,7.095-3.693,14.132-5.722,21.145c1.868-7.058,3.659-14.136,5.234-21.258c0.783-3.562,1.517-7.135,2.112-10.726
				c0.295-1.795,0.557-3.596,0.73-5.396c0.085-0.9,0.149-1.802,0.158-2.693c0.003-0.445-0.006-0.889-0.049-1.315
				c-0.021-0.212-0.051-0.422-0.096-0.611c-0.022-0.094-0.05-0.183-0.079-0.253c-0.014-0.035-0.03-0.064-0.039-0.079
				c0.017-0.004-0.076-0.037,0.114,0.076L33.462,17.318z"/>
		</g>
	</g>
</g>
<g>
	<g>
		<g>
			<defs>
				<path id="SVGID_1_" d="M371.912,25.613L371.912,25.613L371.912,25.613 M371.908,25.611l0.002,0.002
					c-0.002-0.002-0.002-0.004-0.005-0.006C371.905,25.609,371.906,25.609,371.908,25.611"/>
			</defs>
			<clipPath id="SVGID_2_">
				<use xlink:href="#SVGID_1_"  overflow="visible"/>
			</clipPath>
			
				<radialGradient id="SVGID_3_" cx="-286.7026" cy="352.4692" r="0" gradientTransform="matrix(78.2761 5.2971 5.2971 -78.2761 20946.8457 29134.248)" gradientUnits="userSpaceOnUse">
				<stop  offset="0" style="stop-color:#8B8581"/>
				<stop  offset="1" style="stop-color:#070606"/>
			</radialGradient>
			<rect x="371.905" y="25.607" clip-path="url(#SVGID_2_)" fill="url(#SVGID_3_)" width="0.007" height="0.008"/>
		</g>
	</g>
</g>
<g>
	<g>
		<g>
			<defs>
				<path id="SVGID_4_" d="M371.333,25.048l0.162,0.174l0.242,0.238c-0.009-0.01-0.018-0.02-0.025-0.031
					c-0.172-0.162-0.293-0.289-0.424-0.438C371.303,25.011,371.319,25.031,371.333,25.048"/>
			</defs>
			<clipPath id="SVGID_5_">
				<use xlink:href="#SVGID_4_"  overflow="visible"/>
			</clipPath>
			
				<radialGradient id="SVGID_6_" cx="-286.6812" cy="352.561" r="0.1251" gradientTransform="matrix(78.2767 5.2972 5.2972 -78.2767 20947.5664 29135.0293)" gradientUnits="userSpaceOnUse">
				<stop  offset="0" style="stop-color:#8B8581"/>
				<stop  offset="1" style="stop-color:#070606"/>
			</radialGradient>
			<polygon clip-path="url(#SVGID_5_)" fill="url(#SVGID_6_)" points="371.292,24.941 371.772,24.974 371.735,25.511 
				371.255,25.478 			"/>
		</g>
	</g>
</g>
<g>
	<g>
		<g>
			<defs>
				<path id="SVGID_7_" d="M377.001,27.48h0.049h0.008H377.001L377.001,27.48 M377.001,27.48L377.001,27.48h-0.006H377.001z
					 M376.996,27.48h-0.004l-0.255-0.002L376.996,27.48z"/>
			</defs>
			<clipPath id="SVGID_8_">
				<use xlink:href="#SVGID_7_"  overflow="visible"/>
			</clipPath>
			
				<radialGradient id="SVGID_9_" cx="-286.6914" cy="352.5483" r="0.1103" gradientTransform="matrix(78.2763 5.2972 5.2972 -78.2763 20947.707 29135.0781)" gradientUnits="userSpaceOnUse">
				<stop  offset="0" style="stop-color:#8B8581"/>
				<stop  offset="1" style="stop-color:#070606"/>
			</radialGradient>
			<polygon clip-path="url(#SVGID_8_)" fill="url(#SVGID_9_)" points="376.748,27.312 377.068,27.333 377.046,27.646 
				376.726,27.625 			"/>
		</g>
	</g>
</g>
<g>
	<g>
		<g>
			<defs>
				<path id="SVGID_10_" d="M370.253,23.519l0.095,0.158c-0.031-0.055-0.065-0.115-0.104-0.18
					C370.25,23.503,370.251,23.511,370.253,23.519"/>
			</defs>
			<clipPath id="SVGID_11_">
				<use xlink:href="#SVGID_10_"  overflow="visible"/>
			</clipPath>
			
				<radialGradient id="SVGID_12_" cx="-286.6729" cy="352.561" r="0.1298" gradientTransform="matrix(78.2761 5.2971 5.2971 -78.2761 20946.8457 29134.248)" gradientUnits="userSpaceOnUse">
				<stop  offset="0" style="stop-color:#8B8581"/>
				<stop  offset="1" style="stop-color:#070606"/>
			</radialGradient>
			<polygon clip-path="url(#SVGID_11_)" fill="url(#SVGID_12_)" points="370.225,23.496 370.378,23.505 370.369,23.677 
				370.212,23.667 			"/>
		</g>
	</g>
</g>
<g>
	<g>
		<g>
			<defs>
				<path id="SVGID_13_" d="M369.887,22.718c0.019,0.047,0.04,0.1,0.062,0.15c-0.027-0.07-0.06-0.154-0.098-0.26L369.887,22.718z"/>
			</defs>
			<clipPath id="SVGID_14_">
				<use xlink:href="#SVGID_13_"  overflow="visible"/>
			</clipPath>
			
				<radialGradient id="SVGID_15_" cx="-286.6753" cy="352.5581" r="0.1247" gradientTransform="matrix(78.2761 5.2971 5.2971 -78.2761 20946.8457 29134.248)" gradientUnits="userSpaceOnUse">
				<stop  offset="0" style="stop-color:#8B8581"/>
				<stop  offset="1" style="stop-color:#070606"/>
			</radialGradient>
			<polygon clip-path="url(#SVGID_14_)" fill="url(#SVGID_15_)" points="369.792,22.605 370.027,22.621 370.009,22.873 
				369.776,22.857 			"/>
		</g>
	</g>
</g>
<g>
	<g>
		<g>
			<defs>
				<path id="SVGID_16_" d="M369.8,22.482l-0.025-0.082c-0.011-0.031-0.021-0.062-0.036-0.098L369.8,22.482z"/>
			</defs>
			<clipPath id="SVGID_17_">
				<use xlink:href="#SVGID_16_"  overflow="visible"/>
			</clipPath>
			
				<radialGradient id="SVGID_18_" cx="-286.6782" cy="352.5698" r="0.1335" gradientTransform="matrix(78.2761 5.2971 5.2971 -78.2761 20946.8457 29134.248)" gradientUnits="userSpaceOnUse">
				<stop  offset="0" style="stop-color:#8B8581"/>
				<stop  offset="1" style="stop-color:#070606"/>
			</radialGradient>
			<polygon clip-path="url(#SVGID_17_)" fill="url(#SVGID_18_)" points="369.693,22.298 369.858,22.31 369.846,22.486 
				369.682,22.474 			"/>
		</g>
	</g>
</g>
<g>
	<g>
		<g>
			<defs>
				<path id="SVGID_19_" d="M369.492,21.287l0.062,0.307c-0.005-0.016-0.007-0.035-0.009-0.053c-0.021-0.111-0.047-0.248-0.08-0.428
					L369.492,21.287z"/>
			</defs>
			<clipPath id="SVGID_20_">
				<use xlink:href="#SVGID_19_"  overflow="visible"/>
			</clipPath>
			
				<radialGradient id="SVGID_21_" cx="-286.6777" cy="352.5571" r="0.1167" gradientTransform="matrix(78.2761 5.2971 5.2971 -78.2761 20946.8457 29134.248)" gradientUnits="userSpaceOnUse">
				<stop  offset="0" style="stop-color:#8B8581"/>
				<stop  offset="1" style="stop-color:#070606"/>
			</radialGradient>
			<polygon clip-path="url(#SVGID_20_)" fill="url(#SVGID_21_)" points="369.296,21.101 369.75,21.13 369.716,21.603 
				369.265,21.574 			"/>
		</g>
	</g>
</g>
<g>
	<g>
		<g>
			<defs>
				<path id="SVGID_22_" d="M371.153,24.845l-0.054-0.076c-0.062-0.074-0.131-0.158-0.211-0.258L371.153,24.845z"/>
			</defs>
			<clipPath id="SVGID_23_">
				<use xlink:href="#SVGID_22_"  overflow="visible"/>
			</clipPath>
			
				<radialGradient id="SVGID_24_" cx="-286.6646" cy="352.5601" r="0.1336" gradientTransform="matrix(78.2761 5.2971 5.2971 -78.2761 20946.8457 29134.248)" gradientUnits="userSpaceOnUse">
				<stop  offset="0" style="stop-color:#8B8581"/>
				<stop  offset="1" style="stop-color:#070606"/>
			</radialGradient>
			<polygon clip-path="url(#SVGID_23_)" fill="url(#SVGID_24_)" points="370.888,24.503 371.177,24.523 371.155,24.853 
				370.867,24.833 			"/>
		</g>
	</g>
</g>
<g>
	<g>
		<g>
			<defs>
				<path id="SVGID_25_" d="M373.22,26.544c-0.02-0.01-0.038-0.023-0.059-0.037c-0.037-0.02-0.076-0.041-0.115-0.062L373.22,26.544z
					"/>
			</defs>
			<clipPath id="SVGID_26_">
				<use xlink:href="#SVGID_25_"  overflow="visible"/>
			</clipPath>
			
				<radialGradient id="SVGID_27_" cx="-286.6777" cy="352.5356" r="0.0978" gradientTransform="matrix(78.2761 5.2971 5.2971 -78.2761 20946.8457 29134.248)" gradientUnits="userSpaceOnUse">
				<stop  offset="0" style="stop-color:#8B8581"/>
				<stop  offset="1" style="stop-color:#070606"/>
			</radialGradient>
			<polygon clip-path="url(#SVGID_26_)" fill="url(#SVGID_27_)" points="373.048,26.394 373.229,26.406 373.216,26.595 
				373.037,26.583 			"/>
		</g>
	</g>
</g>
<g>
	<g>
		<g>
			<defs>
				<path id="SVGID_28_" d="M371.988,25.685l0.057,0.049c-0.021-0.02-0.041-0.037-0.062-0.055l-0.03-0.025L371.988,25.685z"/>
			</defs>
			<clipPath id="SVGID_29_">
				<use xlink:href="#SVGID_28_"  overflow="visible"/>
			</clipPath>
			
				<radialGradient id="SVGID_30_" cx="-286.6929" cy="352.5522" r="0.1112" gradientTransform="matrix(78.2767 5.2972 5.2972 -78.2767 20947.7539 29134.9043)" gradientUnits="userSpaceOnUse">
				<stop  offset="0" style="stop-color:#8B8581"/>
				<stop  offset="1" style="stop-color:#070606"/>
			</radialGradient>
			<polygon clip-path="url(#SVGID_29_)" fill="url(#SVGID_30_)" points="371.955,25.638 372.05,25.644 372.042,25.751 
				371.946,25.744 			"/>
		</g>
	</g>
</g>
<g>
	<g>
		<g>
			<defs>
				<path id="SVGID_31_" d="M372.48,26.074l-0.074-0.059c-0.093-0.072-0.207-0.162-0.361-0.281L372.48,26.074z"/>
			</defs>
			<clipPath id="SVGID_32_">
				<use xlink:href="#SVGID_31_"  overflow="visible"/>
			</clipPath>
			
				<radialGradient id="SVGID_33_" cx="-286.689" cy="352.5532" r="0.1234" gradientTransform="matrix(78.2767 5.2972 5.2972 -78.2767 20948.0664 29134.4668)" gradientUnits="userSpaceOnUse">
				<stop  offset="0" style="stop-color:#8B8581"/>
				<stop  offset="1" style="stop-color:#070606"/>
			</radialGradient>
			<polygon clip-path="url(#SVGID_32_)" fill="url(#SVGID_33_)" points="372.05,25.642 372.505,25.673 372.474,26.167 
				372.017,26.136 			"/>
		</g>
	</g>
</g>
<g>
	<g>
		<g>
			<defs>
				<path id="SVGID_34_" d="M373.421,26.652l0.08,0.037c-0.037-0.02-0.078-0.041-0.121-0.064
					C373.394,26.634,373.41,26.642,373.421,26.652"/>
			</defs>
			<clipPath id="SVGID_35_">
				<use xlink:href="#SVGID_34_"  overflow="visible"/>
			</clipPath>
			
				<radialGradient id="SVGID_36_" cx="-286.6743" cy="352.6841" r="0.2843" gradientTransform="matrix(78.2761 5.2971 5.2971 -78.2761 20946.8457 29134.248)" gradientUnits="userSpaceOnUse">
				<stop  offset="0" style="stop-color:#8B8581"/>
				<stop  offset="1" style="stop-color:#070606"/>
			</radialGradient>
			<polygon clip-path="url(#SVGID_35_)" fill="url(#SVGID_36_)" points="373.382,26.585 373.507,26.595 373.5,26.728 
				373.375,26.718 			"/>
		</g>
	</g>
</g>
<g>
	<g>
		<g>
			<defs>
				<path id="SVGID_37_" d="M376.992,27.48H377c-0.006,0-0.014-0.002-0.021-0.002c-0.039,0-0.079,0-0.123,0L376.992,27.48z"/>
			</defs>
			<clipPath id="SVGID_38_">
				<use xlink:href="#SVGID_37_"  overflow="visible"/>
			</clipPath>
			
				<radialGradient id="SVGID_39_" cx="-286.686" cy="352.6118" r="0.1736" gradientTransform="matrix(78.2763 5.2972 5.2972 -78.2763 20947.707 29135.0781)" gradientUnits="userSpaceOnUse">
				<stop  offset="0" style="stop-color:#8B8581"/>
				<stop  offset="1" style="stop-color:#070606"/>
			</radialGradient>
			<polygon clip-path="url(#SVGID_38_)" fill="url(#SVGID_39_)" points="376.863,27.404 377.003,27.414 376.996,27.554 
				376.852,27.544 			"/>
		</g>
	</g>
</g>
<g>
	<g>
		<g>
			<defs>
				<path id="SVGID_40_" d="M374.736,27.177c-0.029-0.01-0.056-0.018-0.086-0.027C374.68,27.16,374.708,27.169,374.736,27.177"/>
			</defs>
			<clipPath id="SVGID_41_">
				<use xlink:href="#SVGID_40_"  overflow="visible"/>
			</clipPath>
			
				<radialGradient id="SVGID_42_" cx="-286.6704" cy="352.4995" r="0.0567" gradientTransform="matrix(78.2761 5.2971 5.2971 -78.2761 20946.8457 29134.248)" gradientUnits="userSpaceOnUse">
				<stop  offset="0" style="stop-color:#8B8581"/>
				<stop  offset="1" style="stop-color:#070606"/>
			</radialGradient>
			<polygon clip-path="url(#SVGID_41_)" fill="url(#SVGID_42_)" points="374.651,27.115 374.74,27.121 374.733,27.212 
				374.645,27.205 			"/>
		</g>
	</g>
</g>
<g>
	<g>
		<g>
			<defs>
				<path id="SVGID_43_" d="M375.803,27.41l0.03,0.004l0.063,0.008c-0.046-0.008-0.097-0.016-0.149-0.023
					C375.768,27.402,375.787,27.406,375.803,27.41"/>
			</defs>
			<clipPath id="SVGID_44_">
				<use xlink:href="#SVGID_43_"  overflow="visible"/>
			</clipPath>
			
				<radialGradient id="SVGID_45_" cx="-286.6836" cy="352.5649" r="0.1255" gradientTransform="matrix(78.2764 5.2972 5.2972 -78.2764 20947.6562 29134.9238)" gradientUnits="userSpaceOnUse">
				<stop  offset="0" style="stop-color:#8B8581"/>
				<stop  offset="1" style="stop-color:#070606"/>
			</radialGradient>
			<polygon clip-path="url(#SVGID_44_)" fill="url(#SVGID_45_)" points="375.753,27.328 375.904,27.339 375.894,27.49 
				375.744,27.48 			"/>
		</g>
	</g>
</g>
<g>
	<g>
		<g>
			<defs>
				<path id="SVGID_46_" d="M375.561,27.371l-0.009-0.002C375.554,27.371,375.557,27.371,375.561,27.371 M375.552,27.369
					c-0.021-0.004-0.043-0.01-0.062-0.016c-0.057-0.01-0.113-0.018-0.178-0.029L375.552,27.369z"/>
			</defs>
			<clipPath id="SVGID_47_">
				<use xlink:href="#SVGID_46_"  overflow="visible"/>
			</clipPath>
			
				<radialGradient id="SVGID_48_" cx="-286.6821" cy="352.5034" r="0.072" gradientTransform="matrix(78.2759 5.2971 5.2971 -78.2759 20947.6348 29133.6797)" gradientUnits="userSpaceOnUse">
				<stop  offset="0" style="stop-color:#8B8581"/>
				<stop  offset="1" style="stop-color:#070606"/>
			</radialGradient>
			<polygon clip-path="url(#SVGID_47_)" fill="url(#SVGID_48_)" points="375.319,27.212 375.571,27.23 375.553,27.482 
				375.302,27.464 			"/>
		</g>
	</g>
</g>
<g>
	<g>
		<g>
			<defs>
				<path id="SVGID_49_" d="M374.774,27.189l-0.007-0.002c-0.01-0.004-0.021-0.006-0.031-0.01
					C374.75,27.181,374.762,27.185,374.774,27.189"/>
			</defs>
			<clipPath id="SVGID_50_">
				<use xlink:href="#SVGID_49_"  overflow="visible"/>
			</clipPath>
			
				<radialGradient id="SVGID_51_" cx="-286.6777" cy="352.4507" r="0.0064" gradientTransform="matrix(78.2758 5.2971 5.2971 -78.2758 20947.248 29134.0215)" gradientUnits="userSpaceOnUse">
				<stop  offset="0" style="stop-color:#8B8581"/>
				<stop  offset="1" style="stop-color:#070606"/>
			</radialGradient>
			<rect x="374.735" y="27.163" clip-path="url(#SVGID_50_)" fill="url(#SVGID_51_)" width="0.039" height="0.041"/>
		</g>
	</g>
</g>
<g>
	<g>
		<g>
			<defs>
				<polygon id="SVGID_52_" points="376.737,27.478 376.574,27.478 376.572,27.478 				"/>
			</defs>
			<clipPath id="SVGID_53_">
				<use xlink:href="#SVGID_52_"  overflow="visible"/>
			</clipPath>
			
				<radialGradient id="SVGID_54_" cx="-286.6763" cy="352.5435" r="0.1174" gradientTransform="matrix(78.2764 5.2971 5.2971 -78.2764 20947.3164 29133.6621)" gradientUnits="userSpaceOnUse">
				<stop  offset="0" style="stop-color:#8B8581"/>
				<stop  offset="1" style="stop-color:#070606"/>
			</radialGradient>
			<polygon clip-path="url(#SVGID_53_)" fill="url(#SVGID_54_)" points="376.578,27.392 376.742,27.404 376.73,27.564 
				376.567,27.552 			"/>
		</g>
	</g>
</g>
<g>
	<g>
		<g>
			<defs>
				<polygon id="SVGID_55_" points="377.285,27.47 377.315,27.468 377.305,27.468 377.277,27.47 				"/>
			</defs>
			<clipPath id="SVGID_56_">
				<use xlink:href="#SVGID_55_"  overflow="visible"/>
			</clipPath>
			
				<radialGradient id="SVGID_57_" cx="-286.6738" cy="352.4526" r="0.044" gradientTransform="matrix(78.2759 5.2971 5.2971 -78.2759 20946.8223 29134.4297)" gradientUnits="userSpaceOnUse">
				<stop  offset="0" style="stop-color:#8B8581"/>
				<stop  offset="1" style="stop-color:#070606"/>
			</radialGradient>
			<rect x="377.276" y="27.451" clip-path="url(#SVGID_56_)" fill="url(#SVGID_57_)" width="0.039" height="0.037"/>
		</g>
	</g>
</g>
<g>
	<g>
		<g>
			<defs>
				<polygon id="SVGID_58_" points="371.787,25.507 371.787,25.505 371.775,25.496 				"/>
			</defs>
			<clipPath id="SVGID_59_">
				<use xlink:href="#SVGID_58_"  overflow="visible"/>
			</clipPath>
			
				<radialGradient id="SVGID_60_" cx="-286.7046" cy="352.4702" r="2.000000e-04" gradientTransform="matrix(78.2761 5.2971 5.2971 -78.2761 20946.8457 29134.248)" gradientUnits="userSpaceOnUse">
				<stop  offset="0" style="stop-color:#8B8581"/>
				<stop  offset="1" style="stop-color:#070606"/>
			</radialGradient>
			<rect x="371.774" y="25.494" clip-path="url(#SVGID_59_)" fill="url(#SVGID_60_)" width="0.013" height="0.016"/>
		</g>
	</g>
</g>
<g>
	<g>
		<g>
			<defs>
				<path id="SVGID_61_" d="M369.386,20.208c0.001,0.082,0.007,0.178,0.014,0.273c-0.004-0.096-0.008-0.215-0.013-0.375
					L369.386,20.208z"/>
			</defs>
			<clipPath id="SVGID_62_">
				<use xlink:href="#SVGID_61_"  overflow="visible"/>
			</clipPath>
			
				<radialGradient id="SVGID_63_" cx="-286.6768" cy="352.5562" r="0.1181" gradientTransform="matrix(78.2761 5.2971 5.2971 -78.2761 20946.8457 29134.248)" gradientUnits="userSpaceOnUse">
				<stop  offset="0" style="stop-color:#8B8581"/>
				<stop  offset="1" style="stop-color:#070606"/>
			</radialGradient>
			<polygon clip-path="url(#SVGID_62_)" fill="url(#SVGID_63_)" points="369.225,20.097 369.587,20.121 369.562,20.492 
				369.201,20.468 			"/>
		</g>
	</g>
</g>
<g>
	<g>
		<g>
			<defs>
				<path id="SVGID_64_" d="M374.231,27.011c0.123,0.045,0.278,0.094,0.419,0.139c-0.115-0.039-0.262-0.088-0.465-0.158
					L374.231,27.011z"/>
			</defs>
			<clipPath id="SVGID_65_">
				<use xlink:href="#SVGID_64_"  overflow="visible"/>
			</clipPath>
			
				<radialGradient id="SVGID_66_" cx="-286.6743" cy="352.5767" r="0.1478" gradientTransform="matrix(78.2761 5.2971 5.2971 -78.2761 20946.8457 29134.248)" gradientUnits="userSpaceOnUse">
				<stop  offset="0" style="stop-color:#8B8581"/>
				<stop  offset="1" style="stop-color:#070606"/>
			</radialGradient>
			<polygon clip-path="url(#SVGID_65_)" fill="url(#SVGID_66_)" points="374.199,26.812 374.669,26.845 374.637,27.33 
				374.166,27.296 			"/>
		</g>
	</g>
</g>
<g>
	<g>
		<g>
			<path fill="#4D4D4D" d="M411.533,74.914c-4.188-0.265-8.496-0.625-11.656-3.68c-3-2.9-1.756-6.751-0.426-10.001
				c1.414-3.458,5.207-9.937,0.236-12.14c-0.225-0.1-1.107,0.254-0.789,0.395c5.994,2.657-1.506,12.695-1.934,17.023
				c-0.717,7.281,8.969,8.511,13.947,8.826C411.138,75.351,412.029,74.945,411.533,74.914L411.533,74.914z"/>
		</g>
	</g>
	<g>
		<g>
			<g>
				<defs>
					<polygon id="SVGID_67_" points="379.578,26.968 379.585,26.966 379.578,26.97 					"/>
				</defs>
				<clipPath id="SVGID_68_">
					<use xlink:href="#SVGID_67_"  overflow="visible"/>
				</clipPath>
				
					<radialGradient id="SVGID_69_" cx="-286.604" cy="352.4585" r="0" gradientTransform="matrix(78.2761 5.2971 5.2971 -78.2761 20946.8457 29134.248)" gradientUnits="userSpaceOnUse">
					<stop  offset="0" style="stop-color:#8B8581"/>
					<stop  offset="1" style="stop-color:#070606"/>
				</radialGradient>
				<rect x="379.578" y="26.964" clip-path="url(#SVGID_68_)" fill="url(#SVGID_69_)" width="0.008" height="0.008"/>
			</g>
		</g>
	</g>
	<g>
		<g>
			<g>
				<defs>
					<polygon id="SVGID_70_" points="377.964,27.4 377.977,27.398 377.962,27.4 					"/>
				</defs>
				<clipPath id="SVGID_71_">
					<use xlink:href="#SVGID_70_"  overflow="visible"/>
				</clipPath>
				
					<radialGradient id="SVGID_72_" cx="-286.6255" cy="352.4517" r="7.499999e-05" gradientTransform="matrix(78.2761 5.2971 5.2971 -78.2761 20946.8457 29134.248)" gradientUnits="userSpaceOnUse">
					<stop  offset="0" style="stop-color:#8B8581"/>
					<stop  offset="1" style="stop-color:#070606"/>
				</radialGradient>
				<rect x="377.964" y="27.394" clip-path="url(#SVGID_71_)" fill="url(#SVGID_72_)" width="0.013" height="0.012"/>
			</g>
		</g>
	</g>
	<g>
		<g>
			<g>
				<defs>
					<path id="SVGID_73_" d="M384.307,19.57l0.002,0.02c0-0.008-0.002-0.02-0.002-0.029
						C384.307,19.562,384.307,19.566,384.307,19.57"/>
				</defs>
				<clipPath id="SVGID_74_">
					<use xlink:href="#SVGID_73_"  overflow="visible"/>
				</clipPath>
				
					<radialGradient id="SVGID_75_" cx="-286.5503" cy="352.5552" r="0.002" gradientTransform="matrix(78.2761 5.2971 5.2971 -78.2761 20946.8457 29134.248)" gradientUnits="userSpaceOnUse">
					<stop  offset="0" style="stop-color:#8B8581"/>
					<stop  offset="1" style="stop-color:#070606"/>
				</radialGradient>
				<rect x="384.292" y="19.559" clip-path="url(#SVGID_74_)" fill="url(#SVGID_75_)" width="0.028" height="0.031"/>
			</g>
		</g>
	</g>
	<g>
		<g>
			<g>
				<defs>
					<path id="SVGID_76_" d="M384.316,20.085l0.004-0.152l-0.003-0.178l-0.006-0.068C384.313,19.791,384.315,19.917,384.316,20.085"
						/>
				</defs>
				<clipPath id="SVGID_77_">
					<use xlink:href="#SVGID_76_"  overflow="visible"/>
				</clipPath>
				
					<radialGradient id="SVGID_78_" cx="-286.6807" cy="352.5483" r="0.1222" gradientTransform="matrix(78.2762 5.2971 5.2971 -78.2762 20947.6074 29133.5938)" gradientUnits="userSpaceOnUse">
					<stop  offset="0" style="stop-color:#8B8581"/>
					<stop  offset="1" style="stop-color:#070606"/>
				</radialGradient>
				<polygon clip-path="url(#SVGID_77_)" fill="url(#SVGID_78_)" points="384.132,19.675 384.52,19.703 384.494,20.097 
					384.107,20.07 				"/>
			</g>
		</g>
	</g>
	<g>
		<g>
			<g>
				<defs>
					<path id="SVGID_79_" d="M384.244,21.05c-0.008,0.049-0.015,0.096-0.021,0.141l-0.021,0.141
						c0.014-0.094,0.028-0.201,0.043-0.309C384.246,21.031,384.246,21.041,384.244,21.05"/>
				</defs>
				<clipPath id="SVGID_80_">
					<use xlink:href="#SVGID_79_"  overflow="visible"/>
				</clipPath>
				
					<radialGradient id="SVGID_81_" cx="-286.6704" cy="352.5581" r="0.1217" gradientTransform="matrix(78.2761 5.2971 5.2971 -78.2761 20946.8457 29134.248)" gradientUnits="userSpaceOnUse">
					<stop  offset="0" style="stop-color:#8B8581"/>
					<stop  offset="1" style="stop-color:#070606"/>
				</radialGradient>
				<polygon clip-path="url(#SVGID_80_)" fill="url(#SVGID_81_)" points="384.082,21.011 384.39,21.033 384.371,21.341 
					384.059,21.322 				"/>
			</g>
		</g>
	</g>
	<g>
		<g>
			<g>
				<defs>
					<path id="SVGID_82_" d="M378.567,27.285l0.029-0.008c-0.013,0.002-0.023,0.006-0.035,0.008
						C378.562,27.285,378.565,27.285,378.567,27.285"/>
				</defs>
				<clipPath id="SVGID_83_">
					<use xlink:href="#SVGID_82_"  overflow="visible"/>
				</clipPath>
				
					<radialGradient id="SVGID_84_" cx="-286.6821" cy="352.4546" r="0.0697" gradientTransform="matrix(78.2761 5.2971 5.2971 -78.2761 20946.8457 29134.248)" gradientUnits="userSpaceOnUse">
					<stop  offset="0" style="stop-color:#8B8581"/>
					<stop  offset="1" style="stop-color:#070606"/>
				</radialGradient>
				<rect x="378.561" y="27.264" clip-path="url(#SVGID_83_)" fill="url(#SVGID_84_)" width="0.035" height="0.033"/>
			</g>
		</g>
	</g>
	<g>
		<g>
			<g>
				<defs>
					<path id="SVGID_85_" d="M378.365,27.328c-0.002,0.002-0.006,0.002-0.008,0.002c-0.007,0.002-0.014,0.002-0.021,0.004
						L378.365,27.328z"/>
				</defs>
				<clipPath id="SVGID_86_">
					<use xlink:href="#SVGID_85_"  overflow="visible"/>
				</clipPath>
				
					<radialGradient id="SVGID_87_" cx="-286.6206" cy="352.4526" r="9.013878e-05" gradientTransform="matrix(78.2761 5.2971 5.2971 -78.2761 20946.8457 29134.248)" gradientUnits="userSpaceOnUse">
					<stop  offset="0" style="stop-color:#8B8581"/>
					<stop  offset="1" style="stop-color:#070606"/>
				</radialGradient>
				<rect x="378.335" y="27.319" clip-path="url(#SVGID_86_)" fill="url(#SVGID_87_)" width="0.026" height="0.025"/>
			</g>
		</g>
	</g>
	<g>
		<g>
			<g>
				<defs>
					<path id="SVGID_88_" d="M377.917,27.406l0.092-0.016c-0.031,0.004-0.064,0.01-0.1,0.016
						C377.912,27.406,377.916,27.406,377.917,27.406"/>
				</defs>
				<clipPath id="SVGID_89_">
					<use xlink:href="#SVGID_88_"  overflow="visible"/>
				</clipPath>
				
					<radialGradient id="SVGID_90_" cx="-286.6851" cy="352.561" r="0.1329" gradientTransform="matrix(78.276 5.2971 5.2971 -78.276 20947.209 29134.0254)" gradientUnits="userSpaceOnUse">
					<stop  offset="0" style="stop-color:#8B8581"/>
					<stop  offset="1" style="stop-color:#070606"/>
				</radialGradient>
				<polygon clip-path="url(#SVGID_89_)" fill="url(#SVGID_90_)" points="377.914,27.349 378.009,27.355 378.003,27.449 
					377.908,27.441 				"/>
			</g>
		</g>
	</g>
	<g>
		<g>
			<g>
				<defs>
					<path id="SVGID_91_" d="M378.875,27.205l-0.276,0.072C378.673,27.257,378.762,27.234,378.875,27.205"/>
				</defs>
				<clipPath id="SVGID_92_">
					<use xlink:href="#SVGID_91_"  overflow="visible"/>
				</clipPath>
				
					<radialGradient id="SVGID_93_" cx="-286.6816" cy="352.5679" r="0.1413" gradientTransform="matrix(78.2761 5.2971 5.2971 -78.2761 20947.5957 29133.623)" gradientUnits="userSpaceOnUse">
					<stop  offset="0" style="stop-color:#8B8581"/>
					<stop  offset="1" style="stop-color:#070606"/>
				</radialGradient>
				<polygon clip-path="url(#SVGID_92_)" fill="url(#SVGID_93_)" points="378.608,27.103 378.88,27.121 378.863,27.378 
					378.589,27.361 				"/>
			</g>
		</g>
	</g>
	<g>
		<g>
			<g>
				<defs>
					<path id="SVGID_94_" d="M378.335,27.333l-0.328,0.057C378.145,27.367,378.246,27.351,378.335,27.333"/>
				</defs>
				<clipPath id="SVGID_95_">
					<use xlink:href="#SVGID_94_"  overflow="visible"/>
				</clipPath>
				
					<radialGradient id="SVGID_96_" cx="-286.6733" cy="352.5659" r="0.1333" gradientTransform="matrix(78.276 5.2971 5.2971 -78.276 20947.084 29134.0879)" gradientUnits="userSpaceOnUse">
					<stop  offset="0" style="stop-color:#8B8581"/>
					<stop  offset="1" style="stop-color:#070606"/>
				</radialGradient>
				<polygon clip-path="url(#SVGID_95_)" fill="url(#SVGID_96_)" points="378.021,27.197 378.343,27.218 378.324,27.527 378,27.505 
									"/>
			</g>
		</g>
	</g>
	<g>
		<g>
			<g>
				<defs>
					<path id="SVGID_97_" d="M384.067,21.912l-0.04,0.17c0.051-0.18,0.105-0.424,0.148-0.605l0.004-0.021
						C384.148,21.593,384.108,21.753,384.067,21.912"/>
				</defs>
				<clipPath id="SVGID_98_">
					<use xlink:href="#SVGID_97_"  overflow="visible"/>
				</clipPath>
				
					<radialGradient id="SVGID_99_" cx="-286.6704" cy="352.5591" r="0.1126" gradientTransform="matrix(78.2756 5.2971 5.2971 -78.2756 20947.5391 29133.8867)" gradientUnits="userSpaceOnUse">
					<stop  offset="0" style="stop-color:#8B8581"/>
					<stop  offset="1" style="stop-color:#070606"/>
				</radialGradient>
				<polygon clip-path="url(#SVGID_98_)" fill="url(#SVGID_99_)" points="383.802,21.427 384.449,21.472 384.404,22.107 
					383.759,22.064 				"/>
			</g>
		</g>
	</g>
	<g>
		<g>
			<g>
				<defs>
					<path id="SVGID_100_" d="M379.703,26.919l0.146-0.062l-0.016,0.004c-0.074,0.033-0.151,0.064-0.223,0.094L379.703,26.919z"/>
				</defs>
				<clipPath id="SVGID_101_">
					<use xlink:href="#SVGID_100_"  overflow="visible"/>
				</clipPath>
				
					<radialGradient id="SVGID_102_" cx="-286.6733" cy="352.5454" r="0.1148" gradientTransform="matrix(78.2761 5.2971 5.2971 -78.2761 20946.8457 29134.248)" gradientUnits="userSpaceOnUse">
					<stop  offset="0" style="stop-color:#8B8581"/>
					<stop  offset="1" style="stop-color:#070606"/>
				</radialGradient>
				<polygon clip-path="url(#SVGID_101_)" fill="url(#SVGID_102_)" points="379.625,26.792 379.852,26.808 379.837,27.019 
					379.609,27.003 				"/>
			</g>
		</g>
	</g>
	<g>
		<g>
			<g>
				<defs>
					<path id="SVGID_103_" d="M378.943,27.185l-0.014,0.004c-0.018,0.004-0.035,0.01-0.055,0.016L378.943,27.185z"/>
				</defs>
				<clipPath id="SVGID_104_">
					<use xlink:href="#SVGID_103_"  overflow="visible"/>
				</clipPath>
				
					<radialGradient id="SVGID_105_" cx="-286.8926" cy="352.4546" r="0.2939" gradientTransform="matrix(78.2761 5.2971 5.2971 -78.2761 20946.8457 29134.248)" gradientUnits="userSpaceOnUse">
					<stop  offset="0" style="stop-color:#8B8581"/>
					<stop  offset="1" style="stop-color:#070606"/>
				</radialGradient>
				<polygon clip-path="url(#SVGID_104_)" fill="url(#SVGID_105_)" points="378.876,27.162 378.944,27.167 378.94,27.23 
					378.873,27.224 				"/>
			</g>
		</g>
	</g>
	<g>
		<g>
			<g>
				<defs>
					<path id="SVGID_106_" d="M379.106,27.136c0.03-0.01,0.063-0.021,0.101-0.033c-0.037,0.012-0.078,0.023-0.129,0.039
						L379.106,27.136z"/>
				</defs>
				<clipPath id="SVGID_107_">
					<use xlink:href="#SVGID_106_"  overflow="visible"/>
				</clipPath>
				
					<radialGradient id="SVGID_108_" cx="-286.6694" cy="352.6421" r="0.2036" gradientTransform="matrix(78.2761 5.2971 5.2971 -78.2761 20946.8457 29134.248)" gradientUnits="userSpaceOnUse">
					<stop  offset="0" style="stop-color:#8B8581"/>
					<stop  offset="1" style="stop-color:#070606"/>
				</radialGradient>
				<polygon clip-path="url(#SVGID_107_)" fill="url(#SVGID_108_)" points="379.083,27.06 379.208,27.07 379.201,27.185 
					379.076,27.177 				"/>
			</g>
		</g>
	</g>
	<g>
		<g>
			<g>
				<defs>
					<path id="SVGID_109_" d="M382.884,24.412l-0.068,0.098l0.133-0.18l0.024-0.039C382.943,24.332,382.916,24.373,382.884,24.412"
						/>
				</defs>
				<clipPath id="SVGID_110_">
					<use xlink:href="#SVGID_109_"  overflow="visible"/>
				</clipPath>
				
					<radialGradient id="SVGID_111_" cx="-286.6646" cy="352.5757" r="0.1267" gradientTransform="matrix(78.2761 5.2971 5.2971 -78.2761 20946.8457 29134.248)" gradientUnits="userSpaceOnUse">
					<stop  offset="0" style="stop-color:#8B8581"/>
					<stop  offset="1" style="stop-color:#070606"/>
				</radialGradient>
				<polygon clip-path="url(#SVGID_110_)" fill="url(#SVGID_111_)" points="382.779,24.277 383.026,24.292 383.009,24.523 
					382.763,24.507 				"/>
			</g>
		</g>
	</g>
	<g>
		<g>
			<g>
				<defs>
					<path id="SVGID_112_" d="M381.313,26.005l0.095-0.07l0.002-0.002l-0.004,0.002C381.373,25.96,381.337,25.986,381.313,26.005"/>
				</defs>
				<clipPath id="SVGID_113_">
					<use xlink:href="#SVGID_112_"  overflow="visible"/>
				</clipPath>
				
					<radialGradient id="SVGID_114_" cx="244.2632" cy="-1576.1924" r="0.1243" gradientTransform="matrix(0.3441 0.0233 0.0233 -0.3441 334.0368 -522.09)" gradientUnits="userSpaceOnUse">
					<stop  offset="0" style="stop-color:#8B8581"/>
					<stop  offset="1" style="stop-color:#070606"/>
				</radialGradient>
				<polygon clip-path="url(#SVGID_113_)" fill="url(#SVGID_114_)" points="381.318,25.925 381.41,25.933 381.404,26.011 
					381.312,26.005 				"/>
			</g>
		</g>
	</g>
	<g>
		<g>
			<g>
				<defs>
					<polyline id="SVGID_115_" points="381.692,25.703 381.693,25.703 381.699,25.699 381.705,25.693 381.692,25.703 					"/>
				</defs>
				<clipPath id="SVGID_116_">
					<use xlink:href="#SVGID_115_"  overflow="visible"/>
				</clipPath>
				
					<radialGradient id="SVGID_117_" cx="3737.2856" cy="-14561.8086" r="0.1347" gradientTransform="matrix(0.0449 0.003 0.003 -0.0449 257.5784 -639.338)" gradientUnits="userSpaceOnUse">
					<stop  offset="0" style="stop-color:#8B8581"/>
					<stop  offset="1" style="stop-color:#070606"/>
				</radialGradient>
				<rect x="381.691" y="25.693" clip-path="url(#SVGID_116_)" fill="url(#SVGID_117_)" width="0.014" height="0.012"/>
			</g>
		</g>
	</g>
	<g>
		<g>
			<g>
				<defs>
					<path id="SVGID_118_" d="M381.57,25.806l0.079-0.066h-0.002C381.626,25.759,381.601,25.779,381.57,25.806"/>
				</defs>
				<clipPath id="SVGID_119_">
					<use xlink:href="#SVGID_118_"  overflow="visible"/>
				</clipPath>
				
					<radialGradient id="SVGID_120_" cx="-286.6714" cy="352.5532" r="0.1206" gradientTransform="matrix(78.2762 5.2971 5.2971 -78.2762 20947.0449 29134.0312)" gradientUnits="userSpaceOnUse">
					<stop  offset="0" style="stop-color:#8B8581"/>
					<stop  offset="1" style="stop-color:#070606"/>
				</radialGradient>
				<polygon clip-path="url(#SVGID_119_)" fill="url(#SVGID_120_)" points="381.572,25.734 381.652,25.74 381.648,25.81 
					381.566,25.806 				"/>
			</g>
		</g>
	</g>
	<g>
		<g>
			<g>
				<defs>
					<path id="SVGID_121_" d="M381.126,26.138l0.013-0.008l0,0c-0.026,0.018-0.056,0.037-0.091,0.062L381.126,26.138z"/>
				</defs>
				<clipPath id="SVGID_122_">
					<use xlink:href="#SVGID_121_"  overflow="visible"/>
				</clipPath>
				
					<radialGradient id="SVGID_123_" cx="-286.7583" cy="352.5522" r="0.1901" gradientTransform="matrix(78.2762 5.2971 5.2971 -78.2762 20947.2949 29133.9688)" gradientUnits="userSpaceOnUse">
					<stop  offset="0" style="stop-color:#8B8581"/>
					<stop  offset="1" style="stop-color:#070606"/>
				</radialGradient>
				<polygon clip-path="url(#SVGID_122_)" fill="url(#SVGID_123_)" points="381.053,26.121 381.14,26.126 381.134,26.203 
					381.048,26.197 				"/>
			</g>
		</g>
	</g>
	<g>
		<g>
			<g>
				<defs>
					<path id="SVGID_124_" d="M380.845,26.326l0.004-0.002c-0.023,0.016-0.053,0.031-0.086,0.055L380.845,26.326z"/>
				</defs>
				<clipPath id="SVGID_125_">
					<use xlink:href="#SVGID_124_"  overflow="visible"/>
				</clipPath>
				
					<radialGradient id="SVGID_126_" cx="-286.6245" cy="352.5708" r="0.1107" gradientTransform="matrix(78.2761 5.2971 5.2971 -78.2761 20946.8457 29134.248)" gradientUnits="userSpaceOnUse">
					<stop  offset="0" style="stop-color:#8B8581"/>
					<stop  offset="1" style="stop-color:#070606"/>
				</radialGradient>
				<polygon clip-path="url(#SVGID_125_)" fill="url(#SVGID_126_)" points="380.768,26.312 380.85,26.318 380.845,26.39 
					380.763,26.384 				"/>
			</g>
		</g>
	</g>
	<g>
		<g>
			<g>
				<defs>
					<path id="SVGID_127_" d="M380.442,26.564l-0.067,0.037C380.399,26.587,380.421,26.576,380.442,26.564 M380.333,26.623
						l0.041-0.021c-0.016,0.008-0.028,0.014-0.043,0.021H380.333z"/>
				</defs>
				<clipPath id="SVGID_128_">
					<use xlink:href="#SVGID_127_"  overflow="visible"/>
				</clipPath>
				
					<radialGradient id="SVGID_129_" cx="-286.7896" cy="352.5747" r="0.2299" gradientTransform="matrix(78.2761 5.2971 5.2971 -78.2761 20946.8457 29134.248)" gradientUnits="userSpaceOnUse">
					<stop  offset="0" style="stop-color:#8B8581"/>
					<stop  offset="1" style="stop-color:#070606"/>
				</radialGradient>
				<polygon clip-path="url(#SVGID_128_)" fill="url(#SVGID_129_)" points="380.337,26.544 380.442,26.55 380.435,26.646 
					380.332,26.638 				"/>
			</g>
		</g>
	</g>
	<g>
		<g>
			<g>
				<defs>
					<path id="SVGID_130_" d="M380.546,26.505l-0.002,0.002l-0.008,0.004c-0.027,0.016-0.059,0.033-0.097,0.053L380.546,26.505z"/>
				</defs>
				<clipPath id="SVGID_131_">
					<use xlink:href="#SVGID_130_"  overflow="visible"/>
				</clipPath>
				
					<radialGradient id="SVGID_132_" cx="-286.6343" cy="352.6108" r="0.1542" gradientTransform="matrix(78.2761 5.2971 5.2971 -78.2761 20946.8457 29134.248)" gradientUnits="userSpaceOnUse">
					<stop  offset="0" style="stop-color:#8B8581"/>
					<stop  offset="1" style="stop-color:#070606"/>
				</radialGradient>
				<polygon clip-path="url(#SVGID_131_)" fill="url(#SVGID_132_)" points="380.446,26.488 380.548,26.494 380.542,26.585 
					380.44,26.578 				"/>
			</g>
		</g>
	</g>
	<g>
		<g>
			<g>
				<defs>
					<path id="SVGID_133_" d="M381.933,25.488l-0.002,0.002l0.035-0.031C381.957,25.466,381.946,25.478,381.933,25.488"/>
				</defs>
				<clipPath id="SVGID_134_">
					<use xlink:href="#SVGID_133_"  overflow="visible"/>
				</clipPath>
				
					<radialGradient id="SVGID_135_" cx="-286.6748" cy="352.48" r="0.0986" gradientTransform="matrix(78.2761 5.2971 5.2971 -78.2761 20946.8457 29134.248)" gradientUnits="userSpaceOnUse">
					<stop  offset="0" style="stop-color:#8B8581"/>
					<stop  offset="1" style="stop-color:#070606"/>
				</radialGradient>
				<rect x="381.93" y="25.456" clip-path="url(#SVGID_134_)" fill="url(#SVGID_135_)" width="0.038" height="0.035"/>
			</g>
		</g>
	</g>
	<g>
		<g>
			<g>
				<defs>
					<path id="SVGID_136_" d="M382.466,24.933l-0.012,0.018l0.135-0.156l0.062-0.078C382.589,24.791,382.53,24.865,382.466,24.933"
						/>
				</defs>
				<clipPath id="SVGID_137_">
					<use xlink:href="#SVGID_136_"  overflow="visible"/>
				</clipPath>
				
					<radialGradient id="SVGID_138_" cx="-286.6768" cy="352.5562" r="0.1253" gradientTransform="matrix(78.276 5.2971 5.2971 -78.276 20947.1465 29133.9004)" gradientUnits="userSpaceOnUse">
					<stop  offset="0" style="stop-color:#8B8581"/>
					<stop  offset="1" style="stop-color:#070606"/>
				</radialGradient>
				<polygon clip-path="url(#SVGID_137_)" fill="url(#SVGID_138_)" points="382.428,24.703 382.697,24.72 382.679,24.966 
					382.412,24.947 				"/>
			</g>
		</g>
	</g>
	<g>
		<g>
			<g>
				<defs>
					<path id="SVGID_139_" d="M383.022,24.216l-0.026,0.047c0.062-0.088,0.135-0.207,0.193-0.295l0.014-0.021l0.008-0.014
						C383.145,24.035,383.083,24.128,383.022,24.216"/>
				</defs>
				<clipPath id="SVGID_140_">
					<use xlink:href="#SVGID_139_"  overflow="visible"/>
				</clipPath>
				
					<radialGradient id="SVGID_141_" cx="-286.6655" cy="352.5483" r="0.1134" gradientTransform="matrix(78.2761 5.2971 5.2971 -78.2761 20946.8457 29134.248)" gradientUnits="userSpaceOnUse">
					<stop  offset="0" style="stop-color:#8B8581"/>
					<stop  offset="1" style="stop-color:#070606"/>
				</radialGradient>
				<polygon clip-path="url(#SVGID_140_)" fill="url(#SVGID_141_)" points="382.931,23.914 383.296,23.939 383.274,24.281 
					382.908,24.255 				"/>
			</g>
		</g>
	</g>
	<g>
		<g>
			<g>
				<defs>
					<path id="SVGID_142_" d="M381.832,25.582l0.059-0.051l0.002-0.002C381.873,25.544,381.854,25.562,381.832,25.582"/>
				</defs>
				<clipPath id="SVGID_143_">
					<use xlink:href="#SVGID_142_"  overflow="visible"/>
				</clipPath>
				
					<radialGradient id="SVGID_144_" cx="-286.8193" cy="352.4771" r="0.2419" gradientTransform="matrix(78.2761 5.2971 5.2971 -78.2761 20946.8457 29134.248)" gradientUnits="userSpaceOnUse">
					<stop  offset="0" style="stop-color:#8B8581"/>
					<stop  offset="1" style="stop-color:#070606"/>
				</radialGradient>
				<rect x="381.83" y="25.527" clip-path="url(#SVGID_143_)" fill="url(#SVGID_144_)" width="0.063" height="0.057"/>
			</g>
		</g>
	</g>
	<g>
		<g>
			<g>
				<defs>
					<path id="SVGID_145_" d="M383.268,23.835l-0.009,0.018c0.078-0.131,0.172-0.311,0.244-0.445l0.013-0.027
						C383.429,23.55,383.343,23.701,383.268,23.835"/>
				</defs>
				<clipPath id="SVGID_146_">
					<use xlink:href="#SVGID_145_"  overflow="visible"/>
				</clipPath>
				
					<radialGradient id="SVGID_147_" cx="-286.6699" cy="352.561" r="0.122" gradientTransform="matrix(78.2761 5.2971 5.2971 -78.2761 20946.8457 29134.248)" gradientUnits="userSpaceOnUse">
					<stop  offset="0" style="stop-color:#8B8581"/>
					<stop  offset="1" style="stop-color:#070606"/>
				</radialGradient>
				<polygon clip-path="url(#SVGID_146_)" fill="url(#SVGID_147_)" points="383.147,23.357 383.66,23.39 383.626,23.876 
					383.115,23.843 				"/>
			</g>
		</g>
	</g>
	<g>
		<g>
			<g>
				<defs>
					<path id="SVGID_148_" d="M383.562,23.289l-0.007,0.018c0.011-0.02,0.021-0.047,0.032-0.068
						C383.58,23.255,383.57,23.271,383.562,23.289"/>
				</defs>
				<clipPath id="SVGID_149_">
					<use xlink:href="#SVGID_148_"  overflow="visible"/>
				</clipPath>
				
					<radialGradient id="SVGID_150_" cx="-286.6968" cy="352.5112" r="0.1242" gradientTransform="matrix(78.2766 5.2972 5.2972 -78.2766 20947.9922 29134.6836)" gradientUnits="userSpaceOnUse">
					<stop  offset="0" style="stop-color:#8B8581"/>
					<stop  offset="1" style="stop-color:#070606"/>
				</radialGradient>
				<rect x="383.535" y="23.236" clip-path="url(#SVGID_149_)" fill="url(#SVGID_150_)" width="0.072" height="0.072"/>
			</g>
		</g>
	</g>
	<g>
		<g>
			<g>
				<defs>
					<path id="SVGID_151_" d="M382.242,25.183c-0.02,0.02-0.037,0.039-0.053,0.057c0.066-0.068,0.152-0.162,0.219-0.232l0.014-0.018
						C382.361,25.054,382.302,25.119,382.242,25.183"/>
				</defs>
				<clipPath id="SVGID_152_">
					<use xlink:href="#SVGID_151_"  overflow="visible"/>
				</clipPath>
				
					<radialGradient id="SVGID_153_" cx="-286.6538" cy="352.5903" r="0.1318" gradientTransform="matrix(78.2761 5.2971 5.2971 -78.2761 20946.8457 29134.248)" gradientUnits="userSpaceOnUse">
					<stop  offset="0" style="stop-color:#8B8581"/>
					<stop  offset="1" style="stop-color:#070606"/>
				</radialGradient>
				<polygon clip-path="url(#SVGID_152_)" fill="url(#SVGID_153_)" points="382.167,24.972 382.458,24.992 382.441,25.257 
					382.149,25.238 				"/>
			</g>
		</g>
	</g>
	<g>
		<path fill="none" stroke="#4D4D4D" stroke-width="0.5" stroke-miterlimit="10" d="M399.507,45.296
			c-5.16-7.607-10.293-15.277-15.402-23.014c-0.018-0.026-0.035-0.043-0.053-0.068c-0.979,2.836-3.588,4.904-6.711,5.086
			c0.018,0.021,0.027,0.041,0.047,0.062c6.057,7.021,12.044,14.045,17.963,21.08c0.736,0.87,1.844,1.554,2.396,1.392
			c1.039-0.301,1.877-0.937,2.447-1.854C400.501,47.494,400.144,46.242,399.507,45.296z"/>
		<path fill="none" stroke="#4D4D4D" stroke-width="0.5" stroke-miterlimit="10" d="M384.052,22.214
			c0.267-0.774,0.419-1.602,0.419-2.466c0-4.184-3.392-7.575-7.575-7.575s-7.575,3.392-7.575,7.575s3.392,7.575,7.575,7.575
			c0.15,0,0.298-0.014,0.445-0.022"/>
	</g>
</g>
<g>
	<g>
		<g>
			<g>
				<g>
					<path fill="#4D4D4D" d="M224.555,28.399l-2.456-2.478l-0.325-0.327l0.319-0.315l10.974-10.864l0.18-0.178l0.174,0.176
						l2.457,2.486l0.145,0.146l-0.144,0.143l-10.968,10.859L224.555,28.399z M225.256,27.687L235.591,16.9l0.001,0.289l-2.522-2.421
						l0.354-0.002l-10.684,11.15l-0.006-0.643L225.256,27.687z"/>
				</g>
			</g>
		</g>
	</g>
	<g>
		<g>
			<g>
				<g>
					<g>
						<path fill="#4D4D4D" d="M231.527,35.688l-2.678-2.75l-0.319-0.328l0.319-0.311l11.46-11.13l0.182-0.176l0.172,0.177
							l2.675,2.756l0.141,0.146l-0.142,0.138l-11.452,11.128L231.527,35.688z M232.235,34.981l10.817-11.056l-0.001,0.284
							l-2.742-2.687l0.354,0.001l-11.174,11.415l0-0.638L232.235,34.981z"/>
					</g>
				</g>
			</g>
		</g>
	</g>
	<g>
		<g>
			<g>
				<g>
					<g>
						<path fill="#4D4D4D" d="M245.231,48.97l-2.666-2.749l-0.319-0.33l0.318-0.31l11.448-11.125l0.182-0.177l0.172,0.177
							l2.677,2.755l0.142,0.146l-0.144,0.14l-11.452,11.125L245.231,48.97z M245.939,48.264l10.82-11.055l-0.002,0.286l-2.746-2.687
							h0.354l-11.163,11.411l-0.001-0.638L245.939,48.264z"/>
					</g>
				</g>
			</g>
		</g>
	</g>
	<g>
		<g>
			<g>
				<g>
					<g>
						<path fill="#4D4D4D" d="M252.608,56.125l-2.675-2.748l-0.319-0.328l0.321-0.312l11.451-11.12l0.182-0.177l0.171,0.176
							l2.677,2.75l0.144,0.147l-0.143,0.139l-11.451,11.124L252.608,56.125z M253.316,55.418l10.817-11.052l0,0.286l-2.746-2.683
							l0.353,0l-11.17,11.409l0.002-0.64L253.316,55.418z"/>
					</g>
				</g>
			</g>
		</g>
	</g>
	<g>
		<g>
			<g>
				<g>
					<g>
						<path fill="#4D4D4D" d="M259.71,63.021l-2.667-2.749l-0.318-0.329l0.316-0.307l11.453-11.13l0.183-0.178l0.173,0.179
							l2.668,2.754l0.143,0.147l-0.139,0.136l-11.455,11.128L259.71,63.021z M260.418,62.315l10.814-11.05l0.004,0.283l-2.743-2.691
							l0.356,0.001l-11.164,11.411l-0.002-0.635L260.418,62.315z"/>
					</g>
				</g>
			</g>
		</g>
	</g>
	<g>
		<g>
			<polygon fill="#4D4D4D" points="223.658,27.317 213.718,36.167 222.966,26.595 			"/>
		</g>
	</g>
	<g>
		<g>
			<polygon fill="#4D4D4D" points="230.829,34.5 220.722,43.518 230.136,33.78 			"/>
		</g>
	</g>
	<g>
		<g>
			<polygon fill="#4D4D4D" points="244.345,47.999 234.308,56.953 243.651,47.278 			"/>
		</g>
	</g>
	<g>
		<g>
			<polygon fill="#4D4D4D" points="251.724,55.157 241.472,64.313 251.031,54.436 			"/>
		</g>
	</g>
	<g>
		<g>
			<polygon fill="#4D4D4D" points="258.771,62.11 248.704,71.096 258.078,61.389 			"/>
		</g>
	</g>
	<g>
		<g>
			<polygon fill="#4D4D4D" points="248.962,29.714 227.549,50.443 248.255,29.007 			"/>
		</g>
	</g>
	<g>
		<g>
			<path fill="#4D4D4D" d="M206.964,29.792c2.157,1.882,4.236,3.842,6.356,5.761l6.229,5.888c4.137,3.941,8.173,7.982,12.261,11.973
				c3.991,4.088,8.042,8.115,11.983,12.252l5.895,6.223c1.922,2.117,3.884,4.194,5.769,6.349l-0.07,0.07l-24.282-24.187
				l-24.212-24.258L206.964,29.792z"/>
		</g>
	</g>
	<g>
		<path fill="#4D4D4D" d="M276.855,56.899c-0.756,1.029-1.589,1.981-2.382,2.975l-2.509,2.847c-1.689,1.882-3.478,3.664-5.215,5.497
			c-1.835,1.736-3.61,3.532-5.494,5.219l-2.844,2.513c-0.992,0.794-1.942,1.629-2.97,2.387l-0.07-0.07l10.671-10.754l10.743-10.683
			L276.855,56.899z"/>
	</g>
	<g>
		<g>
			<path fill="#4D4D4D" d="M228.386,8.43c-0.756,1.03-1.589,1.981-2.382,2.974l-2.509,2.847c-1.689,1.882-3.478,3.664-5.215,5.497
				c-1.835,1.736-3.61,3.532-5.494,5.219l-2.844,2.512c-0.992,0.794-1.942,1.629-2.97,2.387l-0.07-0.07l10.671-10.753l10.743-10.683
				L228.386,8.43z"/>
		</g>
	</g>
	<g>
		<path fill="#4D4D4D" d="M276.795,56.901c-2.155-1.884-4.232-3.847-6.351-5.768l-6.223-5.894
			c-4.133-3.946-8.165-7.992-12.25-11.986c-3.986-4.091-8.033-8.124-11.971-12.264l-5.888-6.229
			c-1.919-2.12-3.879-4.199-5.762-6.355l0.07-0.07l24.258,24.212l24.187,24.283L276.795,56.901z"/>
	</g>
</g>
</svg>
