<?xml version="1.0" encoding="utf-8"?>
<!-- Generator: Adobe Illustrator 15.0.2, SVG Export Plug-In . SVG Version: 6.00 Build 0)  -->
<!DOCTYPE svg PUBLIC "-//W3C//DTD SVG 1.1//EN" "http://www.w3.org/Graphics/SVG/1.1/DTD/svg11.dtd">
<svg version="1.1" id="Layer_1" xmlns="http://www.w3.org/2000/svg" xmlns:xlink="http://www.w3.org/1999/xlink" x="0px" y="0px"
	 width="171px" height="200px" viewBox="0 0 171 200" enable-background="new 0 0 171 200" xml:space="preserve">
<g>
	<g>
		<g>
			<g>
				<path fill="#4D4D4D" d="M110.398,197.484l58.094-40.5l1.164-0.815l-0.262,1.396l-0.033,0.191l-0.254,1.366l-0.793-1.14
					L59.583,2.085l-0.467-0.67l0.804,0.142l0.702,0.124l0.804,0.143l-0.67,0.466L1.831,43.377l-0.486,0.339l0.105-0.584l0.16-0.896
					l0.105-0.58l0.337,0.482L110.398,197.484z M111.172,198.585l-0.389-0.549L1.654,42.421l0.441-0.097l-0.16,0.896l-0.384-0.244
					L60.367,1.736l0.137,0.609l-0.704-0.124l0.336-0.524l109.13,155.618l-1.051,0.231l0.037-0.192l0.904,0.586L111.172,198.585z"/>
			</g>
		</g>
	</g>
	<g>
		<g>
			<path fill="#4D4D4D" d="M44.073,51.639l-4.98-7.248l-0.35-0.508l0.501-0.345l33.473-22.979L73,20.368l0.189,0.277l4.969,7.252
				l0.158,0.229l-0.226,0.156L44.628,51.262L44.073,51.639z M45.177,50.869l32.592-23.041l-0.068,0.385l-5.067-7.183l0.468,0.083
				l-33.16,23.435l0.152-0.854L45.177,50.869z"/>
		</g>
	</g>
	<g>
		<g>
			<g>
				<path fill="#4D4D4D" d="M58.753,74.48l-5.435-8.07l-0.342-0.509l0.505-0.339l34.895-23.439l0.282-0.189l0.186,0.277l5.422,8.076
					l0.152,0.229l-0.223,0.15L59.318,74.101L58.753,74.48z M59.865,73.721l34.02-23.504l-0.074,0.381l-5.524-8.01l0.468,0.09
					L54.162,66.568l0.161-0.848L59.865,73.721z"/>
			</g>
		</g>
	</g>
	<g>
		<g>
			<g>
				<path fill="#4D4D4D" d="M89.638,118.836l-5.409-8.074l-0.341-0.504l0.504-0.339l34.87-23.434l0.277-0.188l0.188,0.28
					l5.426,8.071l0.152,0.229l-0.227,0.149L90.2,118.457L89.638,118.836z M90.752,118.074l34.02-23.5l-0.07,0.378l-5.533-8.002
					l0.469,0.089l-34.559,23.887l0.161-0.847L90.752,118.074z"/>
			</g>
		</g>
	</g>
	<g>
		<g>
			<g>
				<path fill="#4D4D4D" d="M105.453,141.522l-5.43-8.064l-0.341-0.51l0.504-0.336l34.88-23.427l0.277-0.189l0.188,0.278
					l5.424,8.063l0.154,0.229l-0.227,0.155l-34.873,23.432L105.453,141.522z M106.566,140.764l34.016-23.499l-0.072,0.384
					l-5.533-7.995l0.465,0.09L100.87,133.62l0.161-0.849L106.566,140.764z"/>
			</g>
		</g>
	</g>
	<g>
		<g>
			<g>
				<path fill="#4D4D4D" d="M120.674,163.389l-5.41-8.068l-0.342-0.507l0.502-0.342l34.879-23.432l0.281-0.189l0.186,0.279
					l5.41,8.076l0.152,0.226l-0.223,0.154l-34.877,23.432L120.674,163.389z M121.783,162.629l34.018-23.5l-0.07,0.381l-5.514-8.007
					l0.465,0.089l-34.574,23.889l0.162-0.852L121.783,162.629z"/>
			</g>
		</g>
	</g>
	<g>
		<polygon fill="#4D4D4D" points="41.821,49.38 17.496,65.077 40.67,47.726 		"/>
	</g>
	<g>
		<polygon fill="#4D4D4D" points="57.521,71.541 33.209,87.243 56.37,69.887 		"/>
	</g>
	<g>
		<polygon fill="#4D4D4D" points="88.628,115.422 64.324,131.125 87.478,113.769 		"/>
	</g>
	<g>
		<polygon fill="#4D4D4D" points="104.449,138.12 80.132,153.825 103.299,136.465 		"/>
	</g>
	<g>
		<polygon fill="#4D4D4D" points="119.494,160.106 95.18,175.821 118.34,158.453 		"/>
	</g>
	<g>
		<polygon fill="#4D4D4D" points="107.504,69.507 48.945,109.049 106.346,67.853 		"/>
	</g>
</g>
</svg>
