<?xml version="1.0" encoding="utf-8"?>
<!-- Generator: Adobe Illustrator 15.0.2, SVG Export Plug-In . SVG Version: 6.00 Build 0)  -->
<!DOCTYPE svg PUBLIC "-//W3C//DTD SVG 1.1//EN" "http://www.w3.org/Graphics/SVG/1.1/DTD/svg11.dtd">
<svg version="1.1" id="Layer_1" xmlns="http://www.w3.org/2000/svg" xmlns:xlink="http://www.w3.org/1999/xlink" x="0px" y="0px"
	 width="200.201px" height="200px" viewBox="0 0 200.201 200" enable-background="new 0 0 200.201 200" xml:space="preserve">
<g>
	<g>
		<g>
			<path fill="#FFFFFF" stroke="#FFFFFF" stroke-miterlimit="10" d="M0.75,76.654l15.64,15.035l15.514,15.163
				c10.326,10.123,20.552,20.349,30.829,30.521c10.18,10.271,20.419,20.481,30.551,30.801l15.177,15.498l15.054,15.622l-0.07,0.07
				L0.68,76.724L0.75,76.654z"/>
		</g>
	</g>
	<g>
		<path fill="#FFFFFF" stroke="#FFFFFF" stroke-miterlimit="10" d="M199.502,123.344l-15.629-15.057L168.37,93.105
			c-10.318-10.138-20.537-20.376-30.807-30.563c-10.174-10.284-20.405-20.508-30.529-30.841L91.869,16.182L76.827,0.539l0.07-0.07
			l122.676,122.805L199.502,123.344z"/>
	</g>
	<g>
		<g>
			<g>
				<path fill="#FFFFFF" stroke="#FFFFFF" stroke-miterlimit="10" d="M74.639,83.027l-9.611-9.689l-0.32-0.323l0.321-0.317
					l41.941-41.495l0.178-0.176l0.177,0.178l9.583,9.699l0.143,0.144l-0.144,0.142l-41.91,41.486L74.639,83.027z M75.348,82.322
					l41.27-41.419l-0.001,0.286l-9.649-9.632l0.354,0.001l-41.652,41.78v-0.64L75.348,82.322z"/>
			</g>
		</g>
		<g>
			<g>
				<path fill="#FFFFFF" stroke="#FFFFFF" stroke-miterlimit="10" d="M57.05,65.438l-9.611-9.689l-0.32-0.323l0.321-0.317
					l41.94-41.495l0.178-0.176l0.175,0.177l9.583,9.699l0.143,0.144L99.315,23.6l-41.91,41.486L57.05,65.438z M57.758,64.732
					l41.27-41.419l-0.001,0.286l-9.649-9.632l0.354,0.001L48.08,55.749v-0.64L57.758,64.732z"/>
			</g>
		</g>
		<g>
			<g>
				<path fill="#FFFFFF" stroke="#FFFFFF" stroke-miterlimit="10" d="M109.819,118.206l-9.611-9.688l-0.32-0.322l0.321-0.317
					l41.94-41.495l0.178-0.176l0.176,0.178l9.583,9.698l0.144,0.144l-0.145,0.142l-41.909,41.486L109.819,118.206z M110.526,117.5
					l41.271-41.419l-0.001,0.286l-9.648-9.631l0.354,0.001l-41.65,41.781v-0.641L110.526,117.5z"/>
			</g>
		</g>
		<g>
			<g>
				<path fill="#FFFFFF" stroke="#FFFFFF" stroke-miterlimit="10" d="M127.408,135.796l-9.611-9.688l-0.319-0.323l0.32-0.317
					l41.939-41.494l0.179-0.176l0.176,0.178l9.583,9.698l0.143,0.144l-0.144,0.142l-41.909,41.486L127.408,135.796z M128.116,135.09
					l41.271-41.419l-0.002,0.286l-9.648-9.631l0.354,0.001l-41.65,41.78v-0.641L128.116,135.09z"/>
			</g>
		</g>
		<g>
			<g>
				<path fill="#FFFFFF" stroke="#FFFFFF" stroke-miterlimit="10" d="M144.998,153.385l-9.612-9.688l-0.318-0.323l0.32-0.317
					l41.938-41.494l0.179-0.177l0.176,0.179l9.584,9.699l0.143,0.145l-0.145,0.142l-41.908,41.485L144.998,153.385z M145.706,152.68
					l41.27-41.419v0.286l-9.648-9.633l0.354,0.001l-41.652,41.78l0.002-0.639L145.706,152.68z"/>
			</g>
		</g>
		<g>
			<g>
				<polygon fill="#FFFFFF" stroke="#FFFFFF" stroke-miterlimit="10" points="129.799,54.038 53.614,129.598 129.092,53.331 				"/>
			</g>
		</g>
		<g>
			<path fill="#FFFFFF" stroke="#FFFFFF" stroke-miterlimit="10" d="M199.586,123.411l-9.211,9.81l-9.336,9.684
				c-6.241,6.438-12.583,12.777-18.872,19.168c-6.387,6.293-12.715,12.646-19.15,18.89l-9.672,9.349l-9.799,9.223l-0.07-0.07
				l76.041-76.12L199.586,123.411z"/>
		</g>
		<g>
			<g>
				<path fill="#FFFFFF" stroke="#FFFFFF" stroke-miterlimit="10" d="M76.725,0.548l-9.21,9.809l-9.337,9.683
					c-6.241,6.439-12.582,12.778-18.872,19.168c-6.387,6.293-12.715,12.646-19.15,18.89l-9.673,9.347l-9.798,9.223l-0.07-0.07
					l76.04-76.121L76.725,0.548z"/>
			</g>
		</g>
		<g>
			<g>
				<polygon fill="#FFFFFF" stroke="#FFFFFF" stroke-miterlimit="10" points="70.537,78.217 36.156,111.928 69.83,77.51 				"/>
			</g>
		</g>
		<g>
			<g>
				<polygon fill="#FFFFFF" stroke="#FFFFFF" stroke-miterlimit="10" points="105.715,113.396 71.334,147.105 105.008,112.689 				
					"/>
			</g>
		</g>
		<g>
			<g>
				<polygon fill="#FFFFFF" stroke="#FFFFFF" stroke-miterlimit="10" points="123.304,130.986 88.924,164.695 122.597,130.279 				
					"/>
			</g>
		</g>
		<g>
			<g>
				<polygon fill="#FFFFFF" stroke="#FFFFFF" stroke-miterlimit="10" points="140.894,148.575 106.513,182.285 140.187,147.868 				
					"/>
			</g>
		</g>
		<g>
			<g>
				<polygon fill="#FFFFFF" stroke="#FFFFFF" stroke-miterlimit="10" points="52.947,60.628 18.566,94.337 52.24,59.921 				"/>
			</g>
		</g>
	</g>
</g>
</svg>
