<?xml version="1.0" encoding="utf-8"?>
<!-- Generator: Adobe Illustrator 15.0.2, SVG Export Plug-In . SVG Version: 6.00 Build 0)  -->
<!DOCTYPE svg PUBLIC "-//W3C//DTD SVG 1.1//EN" "http://www.w3.org/Graphics/SVG/1.1/DTD/svg11.dtd">
<svg version="1.1" id="Layer_1" xmlns="http://www.w3.org/2000/svg" xmlns:xlink="http://www.w3.org/1999/xlink" x="0px" y="0px"
	 width="157.949px" height="200px" viewBox="0 0 157.949 200" enable-background="new 0 0 157.949 200" xml:space="preserve">
<g>
	<g>
		<path fill="#4D4D4D" d="M111.029,150.506c2.428,3.797,4.16,8.18,4.935,12.634c0.801,4.469,0.701,9.069-0.272,13.46
			c-1.895,8.803-7.405,16.645-14.867,21.357c7.211-5.093,12.162-13.073,13.554-21.614c0.717-4.26,0.581-8.64-0.382-12.801
			c-0.968-4.187-2.737-8.08-5.229-11.589L111.029,150.506z"/>
	</g>
	<g>
		<path fill="#4D4D4D" d="M157.449,161.601c-3.8,2.423-8.175,4.15-12.634,4.93c-4.47,0.796-9.069,0.696-13.46-0.274
			c-8.803-1.9-16.637-7.419-21.347-14.881c5.086,7.222,13.067,12.173,21.603,13.564c4.261,0.717,8.641,0.586,12.801-0.382
			c4.188-0.963,8.086-2.727,11.592-5.218L157.449,161.601z"/>
	</g>
	<g>
		<path fill="#4D4D4D" d="M96.276,131.341c1.178,3.993,1.513,8.254,0.675,12.383c-0.712,3.512-2.276,6.9-4.705,9.603
			c-2.407,2.701-5.625,4.679-9.137,5.595c-7.076,1.86-14.591-0.489-20.054-4.854c-2.774-2.159-5.103-4.959-6.914-7.837l-5.657-8.455
			L5.257,70.137c-3.852-5.738-5.684-12.981-4.296-19.844c0.69-3.406,2.213-6.686,4.553-9.289c2.324-2.607,5.427-4.515,8.808-5.389
			c6.824-1.792,14.13,0.47,19.473,4.729c2.721,2.112,4.972,4.807,6.777,7.682l5.652,8.457l45.227,67.639L96.276,131.341z
			 M91.451,124.119L45.669,56.854l-5.72-8.409c-1.826-2.846-4.009-5.405-6.672-7.443c-5.212-4.095-12.267-6.174-18.699-4.42
			c-3.182,0.851-6.086,2.672-8.253,5.139c-2.177,2.466-3.59,5.563-4.213,8.797C0.84,57.033,2.641,63.937,6.367,69.383l45.787,67.264
			l5.72,8.41c1.821,2.837,3.925,5.291,6.531,7.296c5.076,3.998,11.938,5.997,18.107,4.302c3.051-0.814,5.84-2.567,7.929-4.94
			c2.083-2.371,3.449-5.354,4.056-8.486c1.219-6.319-0.502-13.018-4.166-18.387L91.451,124.119z"/>
	</g>
	<g>
		<polygon fill="#4D4D4D" points="109.271,152.698 19.262,16.869 111.489,151.202 		"/>
	</g>
	<g>
		<polygon fill="#4D4D4D" points="26.944,87.24 48.317,74.439 28.441,89.458 		"/>
	</g>
	<g>
		<polygon fill="#4D4D4D" points="42.409,110.146 63.771,97.358 43.9,112.37 		"/>
	</g>
	<g>
		<polygon fill="#4D4D4D" points="34.789,98.868 56.173,86.073 36.291,101.092 		"/>
	</g>
	<g>
		<polygon fill="#4D4D4D" points="100.327,197.229 156.884,160.706 101.828,199.448 		"/>
	</g>
	<g>
		<g>
			<path fill="#4D4D4D" d="M61.207,64.937c0,0.23,0.079,0.343,0.241,0.332c0.686-0.415,1.376-0.827,2.067-1.243
				c-0.073,0.019-0.157,0.041-0.22,0.059c0.633-0.038,1.282-0.072,1.931-0.11c0.104-0.102,0.104-0.153-0.011-0.153
				c-0.686,0.416-1.371,0.828-2.067,1.244c0.073-0.02,0.157-0.038,0.22-0.056c-0.633,0.037-1.282,0.072-1.931,0.11
				c-0.016,0.044-0.037,0.09-0.052,0.136c1.172,1.366,6.133-0.485,4.804-2.028c-1.654-1.927-7.405-0.606-5.909,2.331
				c1.324,2.606,7.588,0.903,6.092-2.009C65.467,61.765,60.438,63.442,61.207,64.937z"/>
		</g>
	</g>
	<g>
		<g>
			<path fill="#4D4D4D" d="M68.989,76.48c0.063,0.173,0.157,0.33,0.277,0.466c0.707-0.369,1.397-0.738,2.099-1.109
				c-0.073,0.021-0.146,0.037-0.22,0.058c0.79-0.032,1.581-0.058,2.371-0.089c-0.157-0.042-0.602-0.486-0.544-0.562
				c-0.696,0.369-1.392,0.741-2.088,1.109c0.068-0.018,0.146-0.039,0.22-0.06c-0.79,0.026-1.586,0.058-2.376,0.086
				c0.199,0.039,0.34,0.154,0.424,0.353c0.974,1.146,5.903-0.638,4.856-1.889c-1.481-1.737-7.264-0.424-5.939,2.25
				c1.172,2.339,7.468,0.654,6.097-1.999C73.38,73.576,68.403,75.35,68.989,76.48z"/>
		</g>
	</g>
	<g>
		<g>
			<path fill="#4D4D4D" d="M76.609,87.773c0.047,0.167,0.136,0.314,0.262,0.427c0.707-0.385,1.397-0.767,2.088-1.149
				c-0.073,0.019-0.146,0.037-0.22,0.058c0.796-0.018,1.586-0.034,2.381-0.05c-0.146-0.039-0.581-0.418-0.518-0.495
				c-0.707,0.385-1.397,0.77-2.088,1.151c0.073-0.021,0.146-0.042,0.225-0.06c-0.795,0.019-1.591,0.034-2.381,0.05
				c0.193,0.023,0.345,0.136,0.434,0.335c1.037,1.214,5.972-0.591,4.831-1.926c-1.539-1.79-7.321-0.498-5.935,2.271
				c1.204,2.413,7.494,0.743,6.097-2.004C80.974,84.785,75.971,86.52,76.609,87.773z"/>
		</g>
	</g>
	<g>
		<path fill="#4D4D4D" d="M19.639,19.131c-1.617-2.709-3.03-5.573-4.051-8.564c-0.502-1.497-0.916-3.033-1.094-4.61
			c-0.083-0.788-0.11-1.59,0.026-2.377c0.125-0.772,0.445-1.596,1.136-2.007c-1.235,1.083-0.937,2.881-0.665,4.3
			c0.335,1.493,0.89,2.932,1.528,4.323c1.298,2.782,2.952,5.372,4.794,7.824L19.639,19.131z"/>
	</g>
	<g>
		<path fill="#4D4D4D" d="M5.969,6.787C6.921,6.21,8.157,6.35,8.952,6.634c0.858,0.284,1.591,0.708,2.271,1.168
			c1.355,0.927,2.517,2.022,3.611,3.17c2.161,2.309,3.982,4.866,5.594,7.535c-1.884-2.479-3.967-4.802-6.291-6.809
			c-1.167-0.992-2.396-1.914-3.694-2.607C9.193,8.414,7.618,7.92,6.958,8.534L5.969,6.787z"/>
	</g>
	<g>
		<polygon fill="#4D4D4D" points="16.09,2.219 6.388,7.545 14.965,0.552 		"/>
	</g>
</g>
</svg>
