<?xml version="1.0" encoding="utf-8"?>
<!-- Generator: Adobe Illustrator 15.0.2, SVG Export Plug-In . SVG Version: 6.00 Build 0)  -->
<!DOCTYPE svg PUBLIC "-//W3C//DTD SVG 1.1//EN" "http://www.w3.org/Graphics/SVG/1.1/DTD/svg11.dtd">
<svg version="1.1" id="Layer_1" xmlns="http://www.w3.org/2000/svg" xmlns:xlink="http://www.w3.org/1999/xlink" x="0px" y="0px"
	 width="137px" height="200px" viewBox="0 0 137 200" enable-background="new 0 0 137 200" xml:space="preserve">
<g>
	<path fill="none" stroke="#FFFFFF" stroke-miterlimit="10" d="M98.932,107.889c-4.222-6.186-8.445-12.368-12.726-18.515
		l-6.386-9.242l-6.313-9.292c-4.175-6.217-8.312-12.46-12.389-18.742c-4.095-6.268-7.828-12.627-11.978-18.85l0,0
		c-1.604,4.574-4.548,8.67-8.411,11.609c-3.852,2.943-8.577,4.756-13.442,5.062l0,0c6.466,7.457,13.214,14.42,19.649,21.918
		c6.456,7.483,12.896,14.98,19.267,22.536c6.398,7.531,12.736,15.115,18.998,22.763c1.499,1.929,3.318,3.625,5.492,4.706
		c0.543,0.258,1.111,0.473,1.689,0.547c0.287,0.035,0.576,0.031,0.842-0.037c0.287-0.09,0.596-0.17,0.875-0.274
		c1.149-0.394,2.254-0.945,3.26-1.638c1.011-0.688,1.918-1.527,2.695-2.478c0.391-0.471,0.745-0.979,1.071-1.489
		c0.306-0.513,0.358-1.142,0.34-1.744c-0.056-1.222-0.399-2.422-0.838-3.566C100.182,110.016,99.611,108.915,98.932,107.889z"/>
</g>
<g>
	<path fill="#FFFFFF" d="M48.735,32.88c1.545-4.971,1.515-10.359-0.098-15.234c-1.581-4.885-4.758-9.198-8.875-12.24
		c-4.091-3.069-9.211-4.876-14.399-4.815C20.178,0.576,15.03,2.418,10.989,5.615c-4.054,3.188-7.04,7.652-8.433,12.57
		c-1.399,4.921-1.173,10.264,0.569,15.05c1.767,4.781,5.049,9.011,9.313,11.868c4.242,2.873,9.432,4.418,14.632,4.198l0.006,0.1
		c-5.202,0.538-10.603-0.799-15.066-3.643c-4.471-2.835-8.016-7.16-9.852-12.164c-1.882-4.989-2.033-10.587-0.504-15.671
		c1.504-5.1,4.742-9.643,9.004-12.743c4.244-3.138,9.456-4.843,14.7-4.934c5.238-0.092,10.557,1.41,14.89,4.491
		c4.338,3.059,7.577,7.616,9.121,12.679c1.547,5.063,1.364,10.624-0.539,15.496L48.735,32.88z"/>
</g>
<g>
	<g>
		<path fill="#FFFFFF" d="M135.229,198.01c-12.627-0.799-25.623-1.885-35.151-11.098c-9.048-8.746-5.295-20.357-1.284-30.158
			c4.264-10.43,15.702-29.968,0.712-36.611c-0.677-0.3-3.339,0.768-2.379,1.19c18.077,8.015-4.541,38.286-5.831,51.339
			c-2.162,21.957,27.049,25.666,42.062,26.615C134.039,199.328,136.725,198.104,135.229,198.01L135.229,198.01z"/>
	</g>
</g>
</svg>
