<?xml version="1.0" encoding="utf-8"?>
<!-- Generator: Adobe Illustrator 15.0.2, SVG Export Plug-In . SVG Version: 6.00 Build 0)  -->
<!DOCTYPE svg PUBLIC "-//W3C//DTD SVG 1.1//EN" "http://www.w3.org/Graphics/SVG/1.1/DTD/svg11.dtd">
<svg version="1.1" id="Layer_1" xmlns="http://www.w3.org/2000/svg" xmlns:xlink="http://www.w3.org/1999/xlink" x="0px" y="0px"
	 width="137px" height="200px" viewBox="0 0 137 200" enable-background="new 0 0 137 200" xml:space="preserve">
<g>
	<g>
		<path fill="#4D4D4D" d="M98.932,107.889c-4.222-6.186-8.446-12.368-12.726-18.515l-6.386-9.242l-6.313-9.292
			c-4.175-6.217-8.312-12.46-12.389-18.742c-4.095-6.268-8.128-12.586-12.278-18.809l0.3-0.041
			c-1.604,4.574-4.548,8.67-8.411,11.609c-3.852,2.943-8.577,4.756-13.442,5.062l0.195-0.449
			c6.466,7.457,13.019,14.869,19.454,22.367c6.456,7.483,12.896,14.98,19.267,22.536c6.398,7.532,12.737,15.115,18.998,22.763
			c1.499,1.929,3.319,3.625,5.493,4.706c0.542,0.257,1.111,0.473,1.689,0.547c0.287,0.035,0.576,0.031,0.841-0.038
			c0.287-0.089,0.596-0.17,0.875-0.274c1.15-0.393,2.254-0.945,3.261-1.637c1.01-0.689,1.918-1.528,2.695-2.478
			c0.39-0.471,0.745-0.98,1.071-1.489c0.305-0.513,0.359-1.142,0.34-1.745c-0.056-1.221-0.399-2.421-0.838-3.566
			C100.181,110.015,99.611,108.915,98.932,107.889z M99.015,107.832c0.693,1.027,1.279,2.128,1.739,3.279
			c0.454,1.151,0.814,2.356,0.885,3.609c0.025,0.618-0.021,1.28-0.346,1.846c-0.334,0.533-0.683,1.043-1.076,1.528
			c-0.783,0.966-1.687,1.839-2.698,2.571c-1.012,0.732-2.123,1.324-3.301,1.759c-0.297,0.118-0.584,0.201-0.886,0.302
			c-0.332,0.097-0.671,0.105-0.997,0.074c-0.652-0.068-1.259-0.285-1.837-0.541c-2.292-1.067-4.226-2.781-5.803-4.7
			c-6.473-7.469-12.885-14.987-19.281-22.52L27.059,49.82l-0.357-0.421l0.553-0.027c4.752-0.236,9.452-1.897,13.26-4.796
			c3.818-2.872,6.782-6.898,8.304-11.437l0.109-0.325l0.191,0.283l12.571,18.622c4.216,6.189,8.39,12.406,12.541,18.638
			c4.146,6.235,8.25,12.499,12.346,18.768l6.18,9.38L99.015,107.832z"/>
	</g>
	<g>
		<path fill="#4D4D4D" d="M48.931,33.177c1.545-4.971,1.515-10.359-0.098-15.234c-1.581-4.885-4.758-9.198-8.875-12.24
			c-4.091-3.069-9.211-4.876-14.399-4.815c-5.185-0.016-10.333,1.827-14.374,5.023c-4.054,3.188-7.04,7.652-8.433,12.57
			c-1.399,4.921-1.173,10.264,0.569,15.05c1.767,4.781,5.049,9.011,9.313,11.868c4.242,2.873,9.432,4.418,14.632,4.198l0.006,0.1
			c-5.202,0.538-10.603-0.799-15.066-3.643C7.735,43.219,4.19,38.894,2.354,33.89C0.472,28.901,0.321,23.303,1.85,18.219
			c1.504-5.1,4.742-9.643,9.004-12.743c4.244-3.138,9.456-4.843,14.7-4.934c5.238-0.092,10.557,1.41,14.89,4.491
			c4.338,3.059,7.577,7.616,9.121,12.679c1.547,5.063,1.364,10.624-0.539,15.496L48.931,33.177z"/>
	</g>
	<g>
		<g>
			<path fill="#4D4D4D" d="M135.229,198.01c-12.628-0.799-25.623-1.885-35.152-11.098c-9.047-8.746-5.295-20.357-1.284-30.158
				c4.264-10.43,15.702-29.968,0.712-36.612c-0.677-0.299-3.339,0.768-2.379,1.191c18.077,8.015-4.541,38.286-5.831,51.339
				c-2.162,21.957,27.049,25.666,42.062,26.615C134.039,199.328,136.724,198.104,135.229,198.01L135.229,198.01z"/>
		</g>
	</g>
</g>
</svg>
